<svg xmlns="http://www.w3.org/2000/svg" viewBox="0 0 300 118.25"><defs><style>.a{fill:#1c4220;}.b{fill:#009a44;}.c{fill:#279989;}.d{fill:none;}.e{fill:#68b8ac;}</style></defs><title>Artboard 1</title><path class="a" d="M137.81,102.08a3.29,3.29,0,0,0,1.33-.25,2.7,2.7,0,0,0,1-.7,3.23,3.23,0,0,0,.62-1.07,4.34,4.34,0,0,0,.21-1.38V91.41h1.61v7.27a5.45,5.45,0,0,1-.33,1.92,4.58,4.58,0,0,1-.94,1.53,4.27,4.27,0,0,1-1.5,1,5.51,5.51,0,0,1-4,0,4.23,4.23,0,0,1-2.45-2.54,5.45,5.45,0,0,1-.33-1.92V91.41h1.61v7.26a4.34,4.34,0,0,0,.21,1.38,3,3,0,0,0,.62,1.07,2.85,2.85,0,0,0,1,.71A3.32,3.32,0,0,0,137.81,102.08Z"/><path class="a" d="M144.76,103.37V94.92h.85a.47.47,0,0,1,.33.09.5.5,0,0,1,.13.32l.1,1.31a3.92,3.92,0,0,1,1.07-1.38,2.39,2.39,0,0,1,1.5-.49,2.09,2.09,0,0,1,.63.08,1.91,1.91,0,0,1,.53.22l-.19,1.11a.26.26,0,0,1-.26.21,1.4,1.4,0,0,1-.36-.08,2.07,2.07,0,0,0-.68-.08,1.9,1.9,0,0,0-1.29.45,3.38,3.38,0,0,0-.88,1.31v5.38Z"/><path class="a" d="M151.11,103.37V91.08h1.49v5a4.7,4.7,0,0,1,1.21-1,3.27,3.27,0,0,1,1.56-.37,3,3,0,0,1,1.32.28,2.59,2.59,0,0,1,1,.82,4,4,0,0,1,.65,1.35,7,7,0,0,1,.22,1.86,5.76,5.76,0,0,1-.25,1.74,4.26,4.26,0,0,1-.72,1.39,3.58,3.58,0,0,1-1.15.93,3.51,3.51,0,0,1-1.53.34,2.83,2.83,0,0,1-1.39-.32,3.12,3.12,0,0,1-1-.89l-.08.77a.36.36,0,0,1-.38.32Zm3.77-7.4a2.4,2.4,0,0,0-1.27.33,3.85,3.85,0,0,0-1,.94v4.09a2.38,2.38,0,0,0,.89.78,2.59,2.59,0,0,0,1.09.22,2.14,2.14,0,0,0,1.82-.84,3.94,3.94,0,0,0,.64-2.4,5.89,5.89,0,0,0-.15-1.42,2.9,2.9,0,0,0-.42-1,1.74,1.74,0,0,0-.68-.56A2.34,2.34,0,0,0,154.88,96Z"/><path class="a" d="M166.21,103.37h-.66a.73.73,0,0,1-.35-.07A.37.37,0,0,1,165,103l-.16-.79c-.23.2-.44.38-.65.54a3.83,3.83,0,0,1-.67.4,3.48,3.48,0,0,1-.75.25,4.71,4.71,0,0,1-.88.08,2.77,2.77,0,0,1-.92-.14,2.1,2.1,0,0,1-.75-.41,1.9,1.9,0,0,1-.5-.7,2.35,2.35,0,0,1-.19-1,1.84,1.84,0,0,1,.28-1,2.42,2.42,0,0,1,.88-.82,5.73,5.73,0,0,1,1.61-.59,10.54,10.54,0,0,1,2.43-.23V98a2.26,2.26,0,0,0-.42-1.49,1.53,1.53,0,0,0-1.25-.51,2.42,2.42,0,0,0-.91.14,3.59,3.59,0,0,0-.65.3l-.46.31a.69.69,0,0,1-.39.14.45.45,0,0,1-.26-.08.54.54,0,0,1-.18-.19l-.27-.48a4.82,4.82,0,0,1,1.51-1,4.71,4.71,0,0,1,1.79-.33,3.08,3.08,0,0,1,1.26.23,2.6,2.6,0,0,1,.93.65,2.86,2.86,0,0,1,.57,1,4.17,4.17,0,0,1,.19,1.3Zm-3.86-.91a3.17,3.17,0,0,0,.72-.08,2.72,2.72,0,0,0,.62-.23,3,3,0,0,0,.55-.35,5.61,5.61,0,0,0,.51-.48V99.58a9.5,9.5,0,0,0-1.74.13,5,5,0,0,0-1.17.34,1.69,1.69,0,0,0-.66.5,1.1,1.1,0,0,0-.2.63,1.28,1.28,0,0,0,.11.58,1,1,0,0,0,.29.4,1.18,1.18,0,0,0,.43.23A1.9,1.9,0,0,0,162.35,102.46Z"/><path class="a" d="M168.13,103.37V94.92H169a.38.38,0,0,1,.4.31l.11.91a4.83,4.83,0,0,1,1.24-1,3.17,3.17,0,0,1,1.57-.38,3.09,3.09,0,0,1,1.22.23,2.53,2.53,0,0,1,.89.65,2.9,2.9,0,0,1,.53,1,4.15,4.15,0,0,1,.19,1.31v5.38h-1.49V98a2.23,2.23,0,0,0-.44-1.49A1.6,1.6,0,0,0,171.9,96a2.43,2.43,0,0,0-1.23.32,4,4,0,0,0-1,.85v6.23Z"/><path class="a" d="M182.68,98.38v5h-1.61v-12h3.38a7.53,7.53,0,0,1,2,.23,3.69,3.69,0,0,1,1.36.67,2.54,2.54,0,0,1,.8,1,3.69,3.69,0,0,1,.06,2.56,3.27,3.27,0,0,1-.58,1,3.57,3.57,0,0,1-.93.74,4.26,4.26,0,0,1-1.24.47,1.85,1.85,0,0,1,.54.51l3.48,4.75h-1.43a.72.72,0,0,1-.65-.34l-3.11-4.28a.82.82,0,0,0-.31-.28,1.06,1.06,0,0,0-.5-.09Zm0-1.18h1.69a4,4,0,0,0,1.25-.17,2.42,2.42,0,0,0,.9-.48,2.15,2.15,0,0,0,.55-.75,2.49,2.49,0,0,0,.18-1,1.9,1.9,0,0,0-.7-1.61,3.44,3.44,0,0,0-2.1-.54h-1.77Z"/><path class="a" d="M193,92.26a1.11,1.11,0,0,1-.08.41,1.27,1.27,0,0,1-.24.33,1,1,0,0,1-.34.23.91.91,0,0,1-.41.08.92.92,0,0,1-.4-.08.86.86,0,0,1-.33-.23,1,1,0,0,1-.23-.33,1,1,0,0,1-.09-.41,1.1,1.1,0,0,1,.32-.75.86.86,0,0,1,.33-.23.92.92,0,0,1,.4-.08.91.91,0,0,1,.41.08,1,1,0,0,1,.34.23,1.16,1.16,0,0,1,.24.34A1.15,1.15,0,0,1,193,92.26Zm-.33,2.66v8.45h-1.49V94.92Z"/><path class="a" d="M199.63,96.31a.32.32,0,0,1-.3.18.6.6,0,0,1-.29-.09,3.43,3.43,0,0,0-.39-.2,2.77,2.77,0,0,0-.54-.21,2.72,2.72,0,0,0-.75-.1,2.37,2.37,0,0,0-.68.1,1.53,1.53,0,0,0-.51.26,1.23,1.23,0,0,0-.33.39,1.13,1.13,0,0,0-.11.48.76.76,0,0,0,.19.54,1.6,1.6,0,0,0,.49.38,5.1,5.1,0,0,0,.7.28c.27.08.53.16.81.26s.54.19.81.3a2.89,2.89,0,0,1,.7.42,1.84,1.84,0,0,1,.49.61,1.8,1.8,0,0,1,.19.87,2.74,2.74,0,0,1-.21,1.08,2.29,2.29,0,0,1-.62.86,2.94,2.94,0,0,1-1,.57,4.07,4.07,0,0,1-1.37.21,4.26,4.26,0,0,1-2.82-1l.35-.57a.66.66,0,0,1,.16-.17.43.43,0,0,1,.24-.06.56.56,0,0,1,.32.12c.11.08.25.16.41.26a3.84,3.84,0,0,0,.57.26,2.62,2.62,0,0,0,.85.11,2.21,2.21,0,0,0,.76-.11,1.41,1.41,0,0,0,.54-.3,1.21,1.21,0,0,0,.32-.44,1.41,1.41,0,0,0,.11-.54.92.92,0,0,0-.19-.58,1.67,1.67,0,0,0-.5-.39,3.78,3.78,0,0,0-.7-.28l-.81-.26q-.42-.14-.81-.3a3.12,3.12,0,0,1-.71-.43,2.06,2.06,0,0,1-.49-.64,2,2,0,0,1-.19-.92,2.25,2.25,0,0,1,.2-.93,2.34,2.34,0,0,1,.58-.79,3.11,3.11,0,0,1,1-.54,3.8,3.8,0,0,1,1.27-.2,3.93,3.93,0,0,1,1.5.27,3.4,3.4,0,0,1,1.15.72Z"/><path class="a" d="M203.12,91.08v7.23h.39a.7.7,0,0,0,.27,0,.89.89,0,0,0,.24-.19l2.67-2.86a2.32,2.32,0,0,1,.25-.22.59.59,0,0,1,.34-.08h1.35l-3.11,3.31-.23.25a1.24,1.24,0,0,1-.26.19,1.49,1.49,0,0,1,.27.23,1.7,1.7,0,0,1,.23.3l3.31,4.17H207.5a.62.62,0,0,1-.31-.07.84.84,0,0,1-.25-.22l-2.77-3.47a.86.86,0,0,0-.25-.23,1.2,1.2,0,0,0-.38,0h-.42v4h-1.49V91.08Z"/><path class="a" d="M215.56,92.26a1.11,1.11,0,0,1-.08.41,1.27,1.27,0,0,1-.24.33,1,1,0,0,1-.34.23.9.9,0,0,1-.4.08,1,1,0,0,1-.74-.31,1,1,0,0,1-.23-.33,1,1,0,0,1-.09-.41,1.1,1.1,0,0,1,.32-.75,1,1,0,0,1,.74-.31.9.9,0,0,1,.4.08,1,1,0,0,1,.34.23,1.16,1.16,0,0,1,.24.34A1.15,1.15,0,0,1,215.56,92.26Zm-.33,2.66v8.45h-1.49V94.92Z"/><path class="a" d="M217.33,103.37V94.92h.89a.38.38,0,0,1,.4.31l.12.91a4.62,4.62,0,0,1,1.23-1,3.17,3.17,0,0,1,1.57-.38,3.09,3.09,0,0,1,1.22.23,2.45,2.45,0,0,1,.89.65,3.09,3.09,0,0,1,.54,1,4.46,4.46,0,0,1,.18,1.31v5.38h-1.49V98a2.28,2.28,0,0,0-.43-1.49,1.63,1.63,0,0,0-1.34-.53,2.4,2.4,0,0,0-1.23.32,3.85,3.85,0,0,0-1.06.85v6.23Z"/><path class="a" d="M238.25,91.41v1.36h-3.87v10.6h-1.62V92.77h-3.88V91.41Z"/><path class="a" d="M238,103.37V94.92h.85a.47.47,0,0,1,.33.09.5.5,0,0,1,.13.32l.1,1.31a3.92,3.92,0,0,1,1.07-1.38,2.39,2.39,0,0,1,1.5-.49,2.09,2.09,0,0,1,.63.08,1.91,1.91,0,0,1,.53.22l-.19,1.11a.26.26,0,0,1-.26.21,1.4,1.4,0,0,1-.36-.08,2.07,2.07,0,0,0-.68-.08,1.9,1.9,0,0,0-1.29.45,3.26,3.26,0,0,0-.87,1.31v5.38Z"/><path class="a" d="M250.46,103.37h-.66a.73.73,0,0,1-.35-.07.34.34,0,0,1-.17-.28l-.17-.79c-.22.2-.44.38-.65.54a3.83,3.83,0,0,1-.67.4,3.48,3.48,0,0,1-.75.25,4.63,4.63,0,0,1-.88.08,2.81,2.81,0,0,1-.92-.14,2.18,2.18,0,0,1-.75-.41,1.9,1.9,0,0,1-.5-.7,2.35,2.35,0,0,1-.19-1,1.84,1.84,0,0,1,.28-1,2.38,2.38,0,0,1,.89-.82,5.54,5.54,0,0,1,1.6-.59,10.54,10.54,0,0,1,2.43-.23V98a2.26,2.26,0,0,0-.42-1.49,1.53,1.53,0,0,0-1.25-.51,2.45,2.45,0,0,0-.91.14,3.48,3.48,0,0,0-.64.3l-.47.31a.69.69,0,0,1-.39.14.45.45,0,0,1-.26-.08.54.54,0,0,1-.18-.19l-.27-.48a4.82,4.82,0,0,1,1.51-1,4.73,4.73,0,0,1,1.8-.33,3.15,3.15,0,0,1,1.26.23,2.65,2.65,0,0,1,.92.65,2.86,2.86,0,0,1,.57,1,4.17,4.17,0,0,1,.19,1.3Zm-3.85-.91a3.08,3.08,0,0,0,.71-.08,2.72,2.72,0,0,0,.62-.23,3,3,0,0,0,.55-.35,5.61,5.61,0,0,0,.51-.48V99.58a9.65,9.65,0,0,0-1.74.13,5,5,0,0,0-1.17.34,1.69,1.69,0,0,0-.66.5,1.1,1.1,0,0,0-.2.63,1.43,1.43,0,0,0,.11.58,1,1,0,0,0,.29.4,1.27,1.27,0,0,0,.43.23A1.93,1.93,0,0,0,246.61,102.46Z"/><path class="a" d="M252.38,103.37V94.92h.89a.38.38,0,0,1,.4.31l.12.91a4.62,4.62,0,0,1,1.23-1,3.2,3.2,0,0,1,1.57-.38,3.09,3.09,0,0,1,1.22.23,2.45,2.45,0,0,1,.89.65,3.09,3.09,0,0,1,.54,1,4.46,4.46,0,0,1,.18,1.31v5.38h-1.49V98a2.28,2.28,0,0,0-.43-1.49,1.63,1.63,0,0,0-1.34-.53,2.4,2.4,0,0,0-1.23.32,3.85,3.85,0,0,0-1.06.85v6.23Z"/><path class="a" d="M266.17,96.31a.33.33,0,0,1-.31.18.57.57,0,0,1-.28-.09l-.39-.2a2.64,2.64,0,0,0-.55-.21,2.72,2.72,0,0,0-.75-.1,2.3,2.3,0,0,0-.67.1,1.69,1.69,0,0,0-.52.26,1.08,1.08,0,0,0-.32.39,1,1,0,0,0-.11.48.8.8,0,0,0,.18.54,1.65,1.65,0,0,0,.5.38,5.1,5.1,0,0,0,.7.28c.26.08.53.16.81.26s.54.19.8.3a2.71,2.71,0,0,1,.7.42,1.86,1.86,0,0,1,.5.61,1.93,1.93,0,0,1,.19.87,2.74,2.74,0,0,1-.21,1.08,2.4,2.4,0,0,1-.62.86,3,3,0,0,1-1,.57,4.57,4.57,0,0,1-3-.08,4,4,0,0,1-1.22-.73l.35-.57a.66.66,0,0,1,.16-.17.43.43,0,0,1,.24-.06.56.56,0,0,1,.32.12l.4.26a3.56,3.56,0,0,0,.58.26,2.58,2.58,0,0,0,.85.11,2.21,2.21,0,0,0,.76-.11,1.57,1.57,0,0,0,.54-.3,1.34,1.34,0,0,0,.32-.44,1.4,1.4,0,0,0,.1-.54.91.91,0,0,0-.18-.58,1.67,1.67,0,0,0-.5-.39,3.89,3.89,0,0,0-.71-.28l-.8-.26q-.42-.14-.81-.3a3.12,3.12,0,0,1-.71-.43,2.09,2.09,0,0,1-.5-.64,2.13,2.13,0,0,1-.18-.92,2.1,2.1,0,0,1,.2-.93,2.22,2.22,0,0,1,.58-.79,3.17,3.17,0,0,1,.94-.54,4.25,4.25,0,0,1,2.78.07,3.5,3.5,0,0,1,1.15.72Z"/><path class="a" d="M270,92.26a1,1,0,0,1-.09.41,1,1,0,0,1-.23.33,1,1,0,0,1-.34.23.94.94,0,0,1-.41.08.9.9,0,0,1-.4-.08,1,1,0,0,1-.34-.23,1.19,1.19,0,0,1-.22-.33,1,1,0,0,1-.09-.41,1,1,0,0,1,.09-.41,1.11,1.11,0,0,1,.22-.34,1,1,0,0,1,.34-.23.9.9,0,0,1,.4-.08.94.94,0,0,1,.41.08,1.1,1.1,0,0,1,.66,1Zm-.33,2.66v8.45h-1.49V94.92Z"/><path class="a" d="M274.32,103.5a2,2,0,0,1-1.54-.56,2.26,2.26,0,0,1-.53-1.61V96.16h-1a.36.36,0,0,1-.23-.08.3.3,0,0,1-.09-.25v-.59l1.39-.17.34-2.61a.31.31,0,0,1,.11-.21.36.36,0,0,1,.23-.08h.75v2.91h2.42v1.08h-2.42v5.07a1.11,1.11,0,0,0,.26.8.9.9,0,0,0,.67.25,1.2,1.2,0,0,0,.4-.06,1.68,1.68,0,0,0,.3-.14l.21-.13a.25.25,0,0,1,.16-.07c.07,0,.14.05.2.15l.44.7a2.91,2.91,0,0,1-.93.57A3.26,3.26,0,0,1,274.32,103.5Z"/><path class="a" d="M279.47,92.26a1,1,0,0,1-.09.41,1.5,1.5,0,0,1-.23.33,1,1,0,0,1-.34.23.94.94,0,0,1-.41.08.9.9,0,0,1-.4-.08,1,1,0,0,1-.34-.23,1.23,1.23,0,0,1-.23-.33,1.11,1.11,0,0,1-.08-.41,1.15,1.15,0,0,1,.08-.41,1.13,1.13,0,0,1,.23-.34,1,1,0,0,1,.34-.23.9.9,0,0,1,.4-.08.94.94,0,0,1,.41.08,1,1,0,0,1,.34.23,1.36,1.36,0,0,1,.23.34A1,1,0,0,1,279.47,92.26Zm-.34,2.66v8.45h-1.48V94.92Z"/><path class="a" d="M284.73,94.78a4.49,4.49,0,0,1,1.68.31,3.67,3.67,0,0,1,1.27.88,4,4,0,0,1,.8,1.37,5.66,5.66,0,0,1,.28,1.8,5.57,5.57,0,0,1-.28,1.8,4.12,4.12,0,0,1-.8,1.37,3.51,3.51,0,0,1-1.27.87,4.68,4.68,0,0,1-3.35,0,3.43,3.43,0,0,1-1.27-.87,4,4,0,0,1-.81-1.37,5.31,5.31,0,0,1-.28-1.8,5.4,5.4,0,0,1,.28-1.8,3.89,3.89,0,0,1,.81-1.37,3.58,3.58,0,0,1,1.27-.88A4.47,4.47,0,0,1,284.73,94.78Zm0,7.55a2.16,2.16,0,0,0,1.87-.84,3.9,3.9,0,0,0,.62-2.34,4,4,0,0,0-.62-2.36,2.16,2.16,0,0,0-1.87-.84,2.51,2.51,0,0,0-1.1.22,2,2,0,0,0-.78.62,2.76,2.76,0,0,0-.46,1,5.1,5.1,0,0,0-.16,1.35,5,5,0,0,0,.16,1.34,2.64,2.64,0,0,0,.46,1,2.15,2.15,0,0,0,.78.62A2.66,2.66,0,0,0,284.73,102.33Z"/><path class="a" d="M290.27,103.37V94.92h.89a.38.38,0,0,1,.4.31l.12.91a4.62,4.62,0,0,1,1.23-1,3.17,3.17,0,0,1,1.57-.38,3.09,3.09,0,0,1,1.22.23,2.53,2.53,0,0,1,.89.65,2.9,2.9,0,0,1,.53,1,4.15,4.15,0,0,1,.19,1.31v5.38h-1.49V98a2.23,2.23,0,0,0-.44-1.49,1.6,1.6,0,0,0-1.33-.53,2.47,2.47,0,0,0-1.24.32,4,4,0,0,0-1.05.85v6.23Z"/><path class="b" d="M136.68,19.53h-1.77a.61.61,0,0,0-.67.66v1.19h-4.71V17.06c0-1.55.54-2.1,2.1-2.1h15.54c1.55,0,2.1.55,2.1,2.1v4.32h-4.72V20.19a.6.6,0,0,0-.66-.66h-1.77V36.71h-5.44Z"/><path class="b" d="M155.8,20.68c5,0,8.88,3.32,8.88,8.25s-3.92,8.15-8.85,8.15S147,33.82,147,28.93,150.9,20.68,155.8,20.68Zm0,12a3.54,3.54,0,0,0,3.56-3.77,3.57,3.57,0,1,0-7.12,0A3.55,3.55,0,0,0,155.83,32.7Z"/><path class="b" d="M166.84,26.13a.61.61,0,0,0-.67-.67H165V21.05h4.71c1.43,0,2.19.7,2.19,1.76V23a3.19,3.19,0,0,1,0,.37H172a5.45,5.45,0,0,1,4.6-2.71,4.53,4.53,0,0,1,4.38,2.65H181a6.05,6.05,0,0,1,5-2.65c2.86,0,5.08,1.55,5.08,5.87v5.08a.61.61,0,0,0,.67.67h1.15v4.41h-4.86c-1.55,0-2.22-.67-2.22-2.22V27.43c0-1.15-.22-2-1.22-2-1.58,0-2.5,1.28-2.83,3a8.13,8.13,0,0,0-.18,1.76v6.48h-5.27V27.43c0-1.15-.21-2-1.21-2-1.55,0-2.44,1.21-2.8,2.89a9.24,9.24,0,0,0-.21,1.88v6.48h-5.27Z"/><path class="b" d="M202.34,20.68c5,0,8.88,3.32,8.88,8.25s-3.92,8.15-8.85,8.15-8.85-3.26-8.85-8.15S197.44,20.68,202.34,20.68Zm0,12a3.55,3.55,0,0,0,3.56-3.77,3.57,3.57,0,1,0-7.12,0A3.54,3.54,0,0,0,202.37,32.7Z"/><path class="b" d="M213.29,26.13a.61.61,0,0,0-.67-.67h-1.15V21.05h4.65c1.43,0,2.22.57,2.22,2v.83a4.58,4.58,0,0,1-.06.79h.06a5.45,5.45,0,0,1,5-3.9,3.55,3.55,0,0,1,.61.06V26a5.71,5.71,0,0,0-1.06-.09,4,4,0,0,0-4,2.74,7.22,7.22,0,0,0-.27,2.13v5.93h-5.27Z"/><path class="b" d="M227,26.13a.6.6,0,0,0-.66-.67h-1.16V21.05h4.65c1.43,0,2.22.57,2.22,2v.83a4.58,4.58,0,0,1-.06.79h.06a5.45,5.45,0,0,1,5-3.9,3.55,3.55,0,0,1,.61.06V26a5.57,5.57,0,0,0-1.06-.09,4,4,0,0,0-4.05,2.74,7.22,7.22,0,0,0-.27,2.13v5.93H227Z"/><path class="b" d="M246.46,20.68c5,0,8.89,3.32,8.89,8.25s-3.93,8.15-8.86,8.15-8.85-3.26-8.85-8.15S241.57,20.68,246.46,20.68Zm0,12a3.54,3.54,0,0,0,3.56-3.77,3.57,3.57,0,1,0-7.12,0A3.55,3.55,0,0,0,246.49,32.7Z"/><path class="b" d="M256.72,25.94a.58.58,0,0,0-.67-.48h-.46V21.05h3.9a1.79,1.79,0,0,1,2,1.49l1.58,7.75a9.07,9.07,0,0,1,.18,1.65h.06a11.51,11.51,0,0,1,.27-1.65l2.16-9.18h4.51l2.16,9.18a9.32,9.32,0,0,1,.24,1.65h.06a9.07,9.07,0,0,1,.18-1.65l1.59-7.75a1.75,1.75,0,0,1,2-1.49h3.9v4.41H280c-.36,0-.52.09-.67.48l-3.16,10.77h-6l-1.76-7.24a14.49,14.49,0,0,1-.3-1.67H268a16,16,0,0,1-.31,1.67l-1.76,7.24h-6.06Z"/><path class="b" d="M282.82,14.51h4.48l-2.71,7.75h-3.41Z"/><path class="b" d="M286.72,30.84s2.19,2.25,4.6,2.25c.76,0,1.18-.21,1.18-.76,0-1.31-7.85-1.73-7.85-6.81,0-3.38,3.14-4.84,6.45-4.84,2.56,0,6.09.73,6.09,3.56V26.1h-4.57v-.76c0-.43-.67-.73-1.43-.73s-1.4.24-1.4.73c0,1.61,7.94,1.4,7.94,6.66,0,3.16-2.76,5.08-6.41,5.08a9.48,9.48,0,0,1-6.94-2.86Z"/><path class="b" d="M149,75.26c-5.69,0-10.41-5.15-10.41-11.49,0-7,4.55-10.67,10.19-10.67,2.49,0,6,.87,6,3.09V58.3h8.66V53.21c0-7.26-10.23-9-14.84-9-11.54,0-20,8.5-20,19.6,0,11.65,8.07,20.43,20.31,20.43A22.24,22.24,0,0,0,165,77.26l-4.92-6.93A15.78,15.78,0,0,1,149,75.26Z"/><polygon class="b" points="165.95 52.94 170.02 52.94 170.02 75.42 165.95 75.42 165.95 83.55 183.23 83.55 183.23 75.42 179.17 75.42 179.17 52.94 183.23 52.94 183.23 44.82 165.95 44.82 165.95 52.94"/><path class="b" d="M216.17,44.82H188.49c-2.76,0-3.74,1-3.74,3.73v7.69h8.4V54.13a1.08,1.08,0,0,1,1.19-1.19h3.14V83.55h9.7V52.94h3.14a1.08,1.08,0,0,1,1.19,1.19v2.11h8.4V48.55C219.91,45.79,218.93,44.82,216.17,44.82Z"/><polygon class="b" points="221.48 52.94 225.54 52.94 225.54 75.42 221.48 75.42 221.48 83.55 238.76 83.55 238.76 75.42 234.7 75.42 234.7 52.94 238.76 52.94 238.76 44.82 221.48 44.82 221.48 52.94"/><path class="b" d="M262.2,74.23A1.08,1.08,0,0,1,261,75.42h-5.36a1.09,1.09,0,0,1-1.2-1.19V68.11H265.5V60H254.45v-7h5.26a1.08,1.08,0,0,1,1.19,1.19v2.11h8.67V48.77c0-2.76-1.2-4-4-4H241.24v8.12h3.52V79.59c0,2.76,1.19,4,4,4h18.2c2.76,0,4-1.2,4-4V72.12H262.2Z"/><path class="b" d="M282,55.43c0-1.78,2-2.6,3.95-2.6,1.79,0,3.8.87,3.8,2.28v1.68h8.66V52.56c0-5.9-7.2-8.39-12.35-8.39-7.69,0-13.81,4.65-13.81,11.64,0,12.14,17.55,12.62,17.55,16.9,0,2.17-1.95,2.87-3.9,2.87C281,75.58,277,71,277,71L271.6,77.8a18.93,18.93,0,0,0,14.14,6.4c8.72,0,13.76-5.53,13.76-12C299.5,59.5,282,60.15,282,55.43Z"/><path class="c" d="M53.1,72.59c-8.36,11-11.18,21.85-26.23,26.25-9.57,2.8-18.36-.79-23.28-9.8-8-14.72.47-32.84,15.26-36.14,14.12-3.15,31.42,8,38.44-5.43,5.23-10-6-20-10.4-26.67-3.75-5.68-6.71-16.35,1.46-19.41s13,2.11,16.7,9c2.51,4.69,2.8,10.45,2,15.89A78,78,0,0,0,65.87,38c0,2-.15,4.71.58,6.58,1.2,3.08,4,5.32,3.29,8.75a6.33,6.33,0,0,1-1.85,2.83c-4.35,4.93-8.75,9.78-13.27,14.6C54.09,71.3,53.61,71.92,53.1,72.59Z"/><path class="c" d="M78.19,70.74c3.16-9.61,16-9.12,24.11-10.24a24.19,24.19,0,0,0,12.1-4.74,35.29,35.29,0,0,0,8.89-9.62c3.58-5.83,4.75-13.08-.06-18.6-7.55-8.66-17.54-6.85-26.21-1.15C88.52,32,84.61,41.52,77.67,48.6c-3.43,3.49-6.62,7.31-10.33,11-2,2-4.29,4.8-4,8.16.15,1.6,1,3.45,1.36,5.05a44.29,44.29,0,0,1,.79,5.56c.48,5.84-1.92,9.48-2.66,18.26-1,11.58,3.43,21.21,16.19,18.43,10.07-2.2,8.91-17.46,4-25.83C79.87,83.78,75.58,78.68,78.19,70.74Z"/><path class="b" d="M106.2,64.21c-8.27-2-23.61-2.64-26.73,7.56S88.2,91.07,97.2,93.62s23.69,2.76,27.11-8S114.46,66.23,106.2,64.21Z"/><path class="b" d="M70.56,47.67c6.38,3.45,14.38-11,16.93-14.85s9.7-20.38,3.29-23.73c-7.3-3.81-15,10.29-17.69,15.05C70.27,29.15,63.09,43.62,70.56,47.67Z"/><path class="b" d="M28.32,49c7.94,3.58,22.9,7.21,27.54-3S48.37,27.09,40.19,23.37s-22.65-7.83-27.34,2.29S20.39,45.4,28.32,49Z"/><path class="b" d="M61.25,70.22C55.26,67.33,47.84,83.88,46,88s-7.88,21.89-1.11,24.56,14.51-13.7,16.33-18.31S67.25,73.1,61.25,70.22Z"/><path class="d" d="M114.25,52.58l.14,0h.11v-.13l.1-.2h0l-.52.14A.66.66,0,0,1,114.25,52.58Z"/><path class="d" d="M114.48,54.11v1.23h.25l0-1.28-.13-.05A.39.39,0,0,1,114.48,54.11Z"/><path class="d" d="M114.23,54.13A.49.49,0,0,1,114,54h0v1.34h.26Z"/><path class="d" d="M61.25,70.22C55.26,67.33,47.84,83.88,46,88s-7.88,21.89-1.11,24.56,14.51-13.7,16.33-18.31S67.25,73.1,61.25,70.22Z"/><path class="d" d="M115.67,53.75l-.12,0a.5.5,0,0,1-.26-.08l0,1.35.58-.47v-.68A.42.42,0,0,1,115.67,53.75Z"/><path class="d" d="M114.8,52.75l0-.49-.2.35A.49.49,0,0,1,114.8,52.75Z"/><path class="d" d="M77.07,51.65a7.86,7.86,0,0,0,1.72-1.88v-.16a10.58,10.58,0,0,1-1.85,1.82h.13Z"/><path class="d" d="M79,50.49v-.23h-.18v-.34a7.87,7.87,0,0,1-1.72,1.83v.17h.26A2.28,2.28,0,0,1,79,50.49Z"/><path class="d" d="M80,49.47v.15a7.9,7.9,0,0,0,1.77,2v-.18H82A9.83,9.83,0,0,1,80,49.47Z"/><path class="d" d="M78.81,49.44l0-.07a13.69,13.69,0,0,1-2.12,1.85v.21h.08A9.7,9.7,0,0,0,78.81,49.44Z"/><path class="d" d="M82.13,51.43h.38A13.78,13.78,0,0,1,80,49.23,10.08,10.08,0,0,0,82.13,51.43Z"/><path class="d" d="M81.59,51.92h.22v-.21A7.74,7.74,0,0,1,80,49.77v.49h-.18v.22A2.28,2.28,0,0,1,81.59,51.92Z"/><path class="d" d="M40.19,23.37C32,19.64,17.54,15.54,12.85,25.66a10.75,10.75,0,0,0-1,4.88h1.91v-.81h.17v.81h.39V31h0l.89,2.57-.89,2.5.89,2.58-.07.18.24.31V34.25H17.2v-.59H15.35V29.18h3.7v2.13h1.36V44.13l.36.29v-14h1.86v-.59H20.77V27.33h3.71v2.12h1.35V47.73l.43.23a129.71,129.71,0,0,1,1-16.2h.75v-.5h.76V24.33H29v-4h.1v4h.18v6.93h.11v-4.5h.23v4.5H30v.5h.75a131.08,131.08,0,0,1,1,15.62h.33V45.49h.62v-.44h-.35v-.73h.64V40h.18v-.73h.29V38.08h.25v-.95l.83-2.54.88,2.54v.95h.25v1.19H36V40h.19v4.08h.25v-.35h.22v-.36h.23V43h.24v-.35h.21v-.35h.22V42h.2v-.35h.27v-.35h.14v-.36h.39v.36h.13v.35H39V42h.2v.35h.23v.35h.21V43h.24v.35h.23v.36h.22v.35h.06V40h.19v-.73h.28V38.08h.26v-.95L42,34.59l.87,2.54v.95h.26v1.19h.28V40h.19v4.32h.72v.73h-.49v.44h.82v6h.22V35.34h.49V33.67h1v-2.4h.19v2.4h.8l.29,1.67h1.3l1.74,9.95H51v-5.1h.45V38.65h.89V36.43h.18v2.22h.74l.27,1.54h1.2l.51,2.92h1.23V44.4"/><rect class="d" x="72.14" y="43.93" width="0.55" height="1.49"/><rect class="d" x="73.17" y="43.93" width="0.55" height="1.49"/><polygon class="d" points="71.93 39.97 71.93 39.59 71.48 39.59 71.93 39.97"/><polygon class="d" points="70.38 43.6 70.38 43.28 70.01 43.28 70.38 43.6"/><rect class="d" x="71.11" y="43.93" width="0.55" height="1.49"/><polygon class="d" points="71.19 41.25 70.72 41.25 71.19 41.66 71.19 41.25"/><path class="d" d="M13.72,30.71h-1.9c0,.1,0,.21,0,.31h1.89Z"/><rect class="d" x="74.21" y="43.93" width="0.55" height="1.49"/><rect class="d" x="13.89" y="30.71" width="0.22" height="0.31"/><polygon class="d" points="73.94 39.59 73.94 39.97 74.38 39.59 73.94 39.59"/><polygon class="d" points="74.67 41.25 74.67 41.66 75.15 41.25 74.67 41.25"/><polygon class="d" points="75.48 43.28 75.48 43.58 75.83 43.28 75.48 43.28"/><path class="a" d="M76.37,46.47V46.1h-.52v-.35h-.37v-.33h-.24V43.93h.24v-.16l.58-.49H77V43l-2.3-.76v-.36l.7-.6h.48v-.36l-1.92-.63v-.15l.6-.52h.51v-.28l-1.71-.56v-.24l-.41-.58-.4.58v.24l-1.71.56v.28h.5l.61.52v.15L70,40.89v.36h.48l.71.6v.36L68.88,43v.31h.9l.6.51v.14h.24v1.49h-.24v.33H70v.35h-.52v.37h-.35v.14a6.19,6.19,0,0,0,1.42,1.06c2,1.06,4.09.43,6.16-1.07v-.13Zm-.89-3.19h.35l-.35.3Zm-.8-2h.47l-.47.41Zm-.74-1.66h.44l-.44.38Zm-3.56,4L70,43.28h.37Zm.34-2.35h.47v.41Zm.94,4.17h-.55V43.93h.55ZM71.93,40l-.45-.38h.45Zm.76,5.45h-.55V43.93h.55Zm1,0h-.55V43.93h.55Zm1,0h-.55V43.93h.55Z"/><rect class="b" x="73.17" y="43.93" width="0.55" height="1.49"/><rect class="b" x="74.21" y="43.93" width="0.55" height="1.49"/><rect class="b" x="72.14" y="43.93" width="0.55" height="1.49"/><polygon class="b" points="71.93 39.97 71.93 39.59 71.48 39.59 71.93 39.97"/><rect class="b" x="71.11" y="43.93" width="0.55" height="1.49"/><polygon class="b" points="71.19 41.66 71.19 41.25 70.72 41.25 71.19 41.66"/><polygon class="b" points="74.67 41.66 75.15 41.25 74.67 41.25 74.67 41.66"/><polygon class="b" points="75.48 43.58 75.83 43.28 75.48 43.28 75.48 43.58"/><polygon class="b" points="73.94 39.97 74.38 39.59 73.94 39.59 73.94 39.97"/><polygon class="b" points="70.38 43.28 70.01 43.28 70.38 43.6 70.38 43.28"/><path class="a" d="M14.29,31h0v-.48h-.39v-.81h-.17v.81H11.81a1,1,0,0,0,0,.17h1.9V31H11.83a14.89,14.89,0,0,0,3.28,7.83l.07-.18-.89-2.58.89-2.5Zm-.18,0h-.22v-.31h.22ZM56.45,43.11V44.4A12.4,12.4,0,0,1,55.86,46c-4.64,10.23-19.6,6.6-27.54,3-.66-.3-1.35-.64-2.06-1a129.71,129.71,0,0,1,1-16.2h.75v-.5h.76V24.33H29v-4h.1v4h.18v6.93h.11v-4.5h.23v4.5H30v.5h.75a131.08,131.08,0,0,1,1,15.62h.33V45.49h.62v-.44h-.35v-.73h.64V40h.18v-.73h.29V38.08h.25v-.95l.83-2.54.88,2.54v.95h.25v1.19H36V40h.19v4.08h.25v-.35h.22v-.36h.23V43h.24v-.35h.21v-.35h.22V42h.2v-.35h.27v-.35h.14v-.36h.39v.36h.13v.35H39V42h.2v.35h.23v.35h.21V43h.24v.35h.23v.36h.22v.35h.06V40h.19v-.73h.28V38.08h.26v-.95L42,34.59l.87,2.54v.95h.26v1.19h.28V40h.19v4.32h.72v.73h-.49v.44h.82v6h.22V35.34h.49V33.67h1v-2.4h.19v2.4h.8l.29,1.67h1.3l1.74,9.95H51v-5.1h.45V38.65h.89V36.43h.18v2.22h.74l.27,1.54h1.2l.51,2.92Zm-32-13.66h1.35V47.73a40.83,40.83,0,0,1-5.06-3.31v-14h1.86v-.59H20.77V27.33h3.71Zm-5.43,1.86h1.36V44.13a30.53,30.53,0,0,1-5.06-5V34.25H17.2v-.59H15.35V29.18h3.7Z"/><path class="b" d="M11.83,30.71c0,.1,0,.21,0,.31h1.88v-.31Z"/><rect class="b" x="13.89" y="30.71" width="0.22" height="0.31"/><path class="a" d="M69.14,49.43v2h-2V48.16H64.4L64,47.6l.41-.62L64,46.37l.41-.63L64,45.13l.41-.62L64,43.9l.41-.63L64,42.66l.41-.62L64,41.43l.41-.63-.42-.61.41-.62L63.92,39l.41-.63-.42-.61.41-.62-.42-.61.41-.63H62.94v-.41l2.34-1.31h-.75v-.87H59.41v.87h-.75L61,35.45v.41H59.64l.41.63-.43.61.41.62-.42.61L60,39l-.42.61.41.62-.43.61.41.63-.42.61.41.62-.42.61.41.63-.43.61.41.62-.42.61.41.63-.42.61.41.62-.43.61.41.63-.42.61.41.62-.38.55H58V49.11h.38V48.8H56.51c-7.45,11.37-24,1.06-37.66,4.1a22.17,22.17,0,0,0-10,5.2c3.06.81,6.12,1.6,9.18,2.32l-.08,0c14.79-5.71,29.2-7.34,21.72,2.44-.28.37-.53.72-.76,1a69.66,69.66,0,0,0,21.17-1.25l2.41-.54q2.72-3,5.39-6a6.33,6.33,0,0,0,1.85-2.83A5.8,5.8,0,0,0,69.14,49.43Z"/><path class="e" d="M64.72,72.79a44.29,44.29,0,0,1,.79,5.56c0,.31,0,.62,0,.92v-.08a25.92,25.92,0,0,1,9.75,5.56q5,4.73,9.62,8.51a1.46,1.46,0,0,1,.07.19,24.63,24.63,0,0,0-2-4.24c-3.18-5.43-7.47-10.53-4.86-18.47,1.38-4.2,4.61-6.47,8.48-7.79-8.43,1.35-16.38,2.9-23.34,4.2a5.83,5.83,0,0,0,0,.59C63.51,69.34,64.37,71.19,64.72,72.79Z"/><path class="e" d="M39.68,62.89C50,49.36,18.49,57.66,2,68.4a25.34,25.34,0,0,0-.39,15.87c16.35-4.11,33.92-7.69,48.49-7.4C51,75.45,52,74,53.1,72.59c.51-.67,1-1.29,1.52-1.87.75-.79,1.49-1.59,2.23-2.39C41.5,71,33.19,71.37,39.68,62.89Z"/><path class="a" d="M116.52,52.92l-.12,0a.46.46,0,0,0-.4-.23.46.46,0,0,0-.35.16h-.1a.48.48,0,0,0-.28.1l0-.83.29.27.14.39.11-.35-.52-.42.84.48-.39-.44.58,0,.58.36-.42-.64-.87.08.14-.08,1-.23-.81.13.57-.36-.88.27.58-.45,1.22-.56-1.28.1-.88.77.57-1.23-.52.38.07-.43-.3-.68-.21.69,0,.42L114.5,50l.38,1.34-.6-.88s.16.4.33.78l-.49-.5.64.92-.79-.88-1.37.12,1.25.41.68.41-.8-.27L113,51.3l.72.26.25.21-.53,0-.4.29.47-.16.52,0a2.9,2.9,0,0,0,.35.07l-.41.29-.14,0a.54.54,0,0,0-.41.2h-.12a.53.53,0,0,0,0,1.06l.13,0,.06.06a.45.45,0,0,0,.23.36v1.39h-.1v-.75a.84.84,0,0,0-.35-.68l-.34-.24-.34.24a.86.86,0,0,0-.34.68v.75h-.14V53.87h.06v-.13h-2v.13h.07v1.47h-.24V53.87H110v-.13h-2v.13h.06v1.47h-.25V53.87h.06v-.13h-1.13l-.15-.25a.13.13,0,0,0,0-.06.33.33,0,0,0-.66,0,.33.33,0,0,0,.23.31h-.31v.13h.06v1.47h-.22v-.72a1.06,1.06,0,0,0-.45-.86l-.44-.31-.43.31a1.06,1.06,0,0,0-.45.86v.72h-.19l-.09-3.23.4.36.15.35v-.38l-.52-.42.83.48-.23-.36.42,0,.58.28-.42-.64-.87.08.14-.08,1-.23-.81.13.57-.36-.88.27.56-.43,1.21-.49h-1.25l-.79.72.21-.51.36-.64-.61.35.08-.43-.31-.68-.21.69,0,.42-.58-.58.44.77.15.49-.6-.88.32.78-.49-.5.64.92-.78-.88-1.3,0,1.23.46.62.51-1.34-.19.45.33-.25,0s-.43.54-.46.56l.62-.31.78,0-.65.47.58-.22.42-.13-.18.29,0,.5.18-.47.19-.21-.08,3.08H103v-.72a1.05,1.05,0,0,0-.44-.86l-.44-.31-.43.31a1.06,1.06,0,0,0-.45.86v.72h-.26V49.8h.12l.19-.27h-.31v-.92h.12l.19-.26h-.31V48l-.27-1.35L100.41,48v.37h-.31l.19.26h.12v.92h-.31l.19.27h.12V51a1.22,1.22,0,0,0-.66-.2,1.19,1.19,0,0,0-1.15.92H98a1.14,1.14,0,0,0-.34-.59v-2.6h.08l.14-.27h-.22v-.74h.08l.14-.28h-.22V46.4h.08l.14-.28h-.22V45l-.18-2.81L97.34,45v1.12h-.22l.14.28h.08v.79h-.22l.14.28h.08v.74h-.22l.14.27h.08v2.36a1.39,1.39,0,0,0-.46-.09,1.14,1.14,0,0,0-.76.29V48.48h.08l.13-.27h-.21v-.74h.08l.13-.28h-.21V46.4h.08l.13-.28h-.21V45l-.18-2.81L95.76,45v1.12h-.21l.13.28h.08v.79h-.21l.13.28h.08v.74h-.21l.13.27h.08v3.1l0,.09h-.25a1.7,1.7,0,0,0,.07-.46,1.63,1.63,0,0,0-1.17-1.56v-.16l-.09-1.28-.08,1.28v.12l-.3,0h-.22a1.65,1.65,0,0,0-1.41-1.18V48l-.09-1.29L92.11,48v.44a1.64,1.64,0,0,0-1.57,1.18h-.06l-.3,0v-.24l-.08-1.28L90,49.37v.28a1.62,1.62,0,0,0-1.18,1.56,1.7,1.7,0,0,0,.07.46h-.28V48.48h.08l.13-.27h-.21v-.74h.08l.13-.28h-.21V46.4h.08l.13-.28h-.21V45l-.18-2.81L88.27,45v1.12h-.21l.13.28h.08v.79h-.21l.13.28h.08v.74h-.21l.13.27h.08v2.78a1.15,1.15,0,0,0-1-.51,1.36,1.36,0,0,0-.3,0V48.48h.08l.13-.27H87v-.74h.08l.13-.28H87V46.4h.08l.13-.28H87V45l-.18-2.81L86.65,45v1.12h-.21l.13.28h.08v.79h-.21l.13.28h.08v.74h-.21l.13.27h.08V51a1.17,1.17,0,0,0-.49.72H85.6a1.19,1.19,0,0,0-1.15-.92,1.22,1.22,0,0,0-.65.2V49.8h.12l.19-.27H83.8v-.92h.12l.19-.26H83.8V48l-.26-1.35L83.27,48v.37H83l.19.26h.12v.92H83l.19.27h.12v1.63h-.4V51h-.2v.42h0A13.66,13.66,0,0,1,79.82,49l-.07-.19v-.44h-.18L79.41,48l-.15.38h-.18v.44l-.15.39a14.6,14.6,0,0,1-2.21,2V49.58c-3.08,3.22-6,6.67-9.38,10a22.56,22.56,0,0,0-1.71,1.89l.41-.08,1.23-1.26,1.19.74.91-1.48,1.37,1,1.56-2.81,2.11,2.06,1-3.06L78,58.92,78.64,56l2.48,2.33.93-2.24L83.69,58,85,56.77l.83,1,1.59-.53.78.31h0a136.36,136.36,0,0,1,23.17.22,23.8,23.8,0,0,0,3.05-2c.32-.23.62-.47.93-.72l0-1.35a.5.5,0,0,0,.26.08l.12,0a.42.42,0,0,0,.24.14v.68l.25-.21v-.48l.16-.1a.46.46,0,0,0,.2,0,.47.47,0,0,0,.46-.46A.46.46,0,0,0,116.52,52.92Zm-39.8-1.49v-.21a13.69,13.69,0,0,0,2.12-1.85l0,.07a9.7,9.7,0,0,1-2,2Zm2.07-1.82v.16a7.86,7.86,0,0,1-1.72,1.88v-.22h-.13A10.58,10.58,0,0,0,78.79,49.61Zm.18.88a2.28,2.28,0,0,0-1.64,1.43h-.26v-.17a7.87,7.87,0,0,0,1.72-1.83v.34H79Zm2.84,1.43h-.22a2.28,2.28,0,0,0-1.73-1.44v-.22H80v-.49a7.74,7.74,0,0,0,1.77,1.94Zm0-.49v.18a7.9,7.9,0,0,1-1.77-2v-.15a9.83,9.83,0,0,0,2,2Zm.32,0A10.08,10.08,0,0,1,80,49.23a13.78,13.78,0,0,0,2.55,2.2Zm24.23,2.31.1-.05,0,.05Zm.19,0,0-.08a.41.41,0,0,0,.07-.11l.1.19Zm7.68,1.6H114V54h0a.49.49,0,0,0,.24.14Zm.16-2.78-.14,0a.66.66,0,0,0-.18-.19l.52-.14h0l-.1.2v.13Zm.34,2.78h-.25V54.11a.39.39,0,0,0,.16-.1l.13.05Zm.07-2.59a.49.49,0,0,0-.18-.14l.2-.35Z"/><path class="e" d="M79.86,50.48a2.28,2.28,0,0,1,1.73,1.44h.22v-.21A7.74,7.74,0,0,1,80,49.77v.49h-.18Z"/><path class="e" d="M82.51,51.43A13.78,13.78,0,0,1,80,49.23a10.08,10.08,0,0,0,2.17,2.2Z"/><path class="e" d="M81.81,51.61v-.18H82a9.83,9.83,0,0,1-2-2v.15A7.9,7.9,0,0,0,81.81,51.61Z"/><path class="e" d="M78.81,49.44l0-.07a13.69,13.69,0,0,1-2.12,1.85v.21h.08A9.7,9.7,0,0,0,78.81,49.44Z"/><path class="e" d="M88.27,45l.11-1.67L87,44.3,87,45v1.12h.21l-.13.28H87v.79h.21l-.13.28H87v.74h.21l-.13.27H87v2.31a1.36,1.36,0,0,1,.3,0,1.15,1.15,0,0,1,1,.51V48.48h-.08l-.13-.27h.21v-.74h-.08l-.13-.28h.21V46.4h-.08l-.13-.28h.21Z"/><path class="e" d="M76.72,50v1.1a14.6,14.6,0,0,0,2.21-2L79,49C78.25,49.33,77.48,49.69,76.72,50Z"/><path class="e" d="M86.65,45l0-.52a72.15,72.15,0,0,1-6.93,4.11v.18l.07.19a13.66,13.66,0,0,0,2.85,2.47h0V51h.2v.42h.4V49.8h-.12L83,49.53h.31v-.92h-.12L83,48.35h.31V48l.27-1.35L83.8,48v.37h.31l-.19.26H83.8v.92h.31l-.19.27H83.8V51a1.22,1.22,0,0,1,.65-.2,1.19,1.19,0,0,1,1.15.92h.56a1.17,1.17,0,0,1,.49-.72V48.48h-.08l-.13-.27h.21v-.74h-.08l-.13-.28h.21V46.4h-.08l-.13-.28h.21Z"/><path class="e" d="M78.79,49.77v-.16a10.58,10.58,0,0,1-1.85,1.82h.13v.22A7.86,7.86,0,0,0,78.79,49.77Z"/><path class="e" d="M79,50.49v-.23h-.18v-.34a7.87,7.87,0,0,1-1.72,1.83v.17h.26A2.28,2.28,0,0,1,79,50.49Z"/><path class="e" d="M114.07,52.39a.66.66,0,0,1,.18.19l.14,0h.11v-.13l.1-.2h0Z"/><path class="e" d="M114.8,52.75l0-.49-.2.35A.49.49,0,0,1,114.8,52.75Z"/><path class="e" d="M114.48,55.34h.25l0-1.28-.13-.05a.39.39,0,0,1-.16.1Z"/><path class="e" d="M113.12,31.41h-1.71a.36.36,0,0,1,0-.1,2.31,2.31,0,0,1,1.09-1.57,1.78,1.78,0,0,0,.36-.25,2.48,2.48,0,0,1,2.37-.58,6.13,6.13,0,0,0,1.7.3,5.5,5.5,0,0,0,3.83-1.44,2.28,2.28,0,0,1,2-.61h.08c-5-5.53-11.13-6.52-17.17-4.87a2.33,2.33,0,0,0-.08.46c0,.11,0,.21,0,.31-2.39.79-2.36,5-1.41,7.59a2.48,2.48,0,0,1,.14.75h-1.51A122.64,122.64,0,0,1,88.52,43.23L88.63,45v1.12h.21l-.13.28h-.08v.79h.21l-.13.28h-.08v.74h.21l-.13.27h-.08v3.19h.28a1.7,1.7,0,0,1-.07-.46A1.62,1.62,0,0,1,90,49.65v-.28l.08-1.28.08,1.28v.24l.3,0h.06a1.64,1.64,0,0,1,1.57-1.18V48l.08-1.29L92.28,48v.45a1.65,1.65,0,0,1,1.41,1.18h.22l.3,0v-.12l.08-1.28.09,1.28v.16a1.63,1.63,0,0,1,1.17,1.56,1.7,1.7,0,0,1-.07.46h.25l0-.09v-3.1h-.08l-.13-.27h.21v-.74h-.08l-.13-.28h.21V46.4h-.08l-.13-.28h.21V45l.18-2.81L96.12,45v1.12h.21l-.13.28h-.08v.79h.21l-.13.28h-.08v.74h.21l-.13.27h-.08V51a1.14,1.14,0,0,1,.76-.29,1.39,1.39,0,0,1,.46.09V48.48h-.08l-.14-.27h.22v-.74h-.08l-.14-.28h.22V46.4h-.08l-.14-.28h.22V45l.17-2.81L97.69,45v1.12h.22l-.14.28h-.08v.79h.22l-.14.28h-.08v.74h.22l-.14.27h-.08v2.6a1.14,1.14,0,0,1,.34.59h.57a1.19,1.19,0,0,1,1.15-.92,1.22,1.22,0,0,1,.66.2V49.8h-.12l-.19-.27h.31v-.92h-.12l-.19-.26h.31V48l.26-1.35.27,1.35v.37h.31l-.19.26h-.12v.92h.31l-.19.27h-.12v5.54h.26v-.72a1.06,1.06,0,0,1,.45-.86l.43-.31.44.31a1.05,1.05,0,0,1,.44.86v.72h.17l.08-3.08-.19.21-.18.47,0-.5.18-.29-.42.13-.58.22.65-.47-.78,0-.62.31s.46-.56.46-.56l.25,0-.45-.33,1.34.19-.62-.51-1.23-.46,1.3,0,.78.88-.64-.92.49.5-.32-.78.6.88-.15-.49-.44-.77.58.58,0-.42.21-.69.31.68-.08.43.61-.35-.36.64-.21.51.79-.72h1.25l-1.21.49-.56.43.88-.27-.57.36.81-.13-1,.23-.14.08.87-.08.42.64-.58-.28-.42,0,.23.36-.83-.48.52.42v.38l-.15-.35-.4-.36.09,3.23h.19v-.72a1.06,1.06,0,0,1,.45-.86l.43-.31.44.31a1.06,1.06,0,0,1,.45.86v.72h.22V53.87h-.06v-.13h.31a.33.33,0,0,1-.23-.31.33.33,0,0,1,.66,0,.13.13,0,0,1,0,.06l.15.25h1.13v.13h-.06v1.47h.25V53.87H108v-.13h2v.13h-.06v1.47h.24V53.87h-.07v-.13h2v.13h-.06v1.47h.14v-.75a.86.86,0,0,1,.34-.68l.34-.24.34.24a.84.84,0,0,1,.35.68v.75h.1V54a.45.45,0,0,1-.23-.36l-.06-.06-.13,0a.53.53,0,0,1,0-1.06h.12a.54.54,0,0,1,.41-.2l.14,0,.41-.29A2.9,2.9,0,0,1,114,52l-.52,0-.47.16.4-.29.53,0-.25-.21L113,51.3l.78.11.8.27-.68-.41-1.25-.41,1.37-.12.79.88-.64-.92.49.5c-.17-.38-.33-.78-.33-.78l.6.88L114.5,50l.38.66,0-.42.21-.69.3.68-.07.43.52-.38-.57,1.23.88-.77,1.28-.1-1.22.56-.58.45.88-.27-.57.36.81-.13-1,.23-.14.08.87-.08.42.64-.58-.36-.58,0,.39.44-.84-.48.52.42-.11.35-.14-.39-.29-.27,0,.83a.48.48,0,0,1,.28-.1h.1a.46.46,0,0,1,.35-.16.46.46,0,0,1,.4.23l.12,0a.46.46,0,0,1,.46.45.47.47,0,0,1-.46.46.46.46,0,0,1-.2,0l-.16.1v.47a34.92,34.92,0,0,0,7.13-8.21c0-.08.09-.15.13-.22l0,0,.13-.21,0,0,.12-.21,0,0c.09-.16.18-.31.26-.47h0l.12-.24h0l.12-.24v0c.13-.24.25-.49.36-.74h0l.12-.25h0l.33-.77h0c0-.09.07-.17.1-.26h0c0-.09.07-.18.1-.26C120.14,37.55,113.12,31.41,113.12,31.41Z"/><path class="e" d="M115.91,53.89a.42.42,0,0,1-.24-.14l-.12,0a.5.5,0,0,1-.26-.08l0,1.34.58-.46Z"/><path class="e" d="M114,54v1.34h.26V54.13A.49.49,0,0,1,114,54Z"/><path class="e" d="M106.36,53.74h.13l0-.05Z"/><path class="e" d="M106.57,53.55a.41.41,0,0,1-.07.11l0,.08h.12Z"/></svg>