<?xml version="1.0" encoding="UTF-8" standalone="no"?>
<svg
   viewBox="0 0 215.715 197.09916"
   version="1.1"
   id="svg89"
   sodipodi:docname="favicon.svg"
   width="215.715"
   height="197.09915"
   inkscape:version="1.3.2 (091e20e, 2023-11-25)"
   xmlns:inkscape="http://www.inkscape.org/namespaces/inkscape"
   xmlns:sodipodi="http://sodipodi.sourceforge.net/DTD/sodipodi-0.dtd"
   xmlns="http://www.w3.org/2000/svg"
   xmlns:svg="http://www.w3.org/2000/svg"
   xmlns:rdf="http://www.w3.org/1999/02/22-rdf-syntax-ns#"
   xmlns:cc="http://creativecommons.org/ns#"
   xmlns:dc="http://purl.org/dc/elements/1.1/">
  <sodipodi:namedview
     id="namedview89"
     pagecolor="#ffffff"
     bordercolor="#000000"
     borderopacity="0.25"
     inkscape:showpageshadow="2"
     inkscape:pageopacity="0.0"
     inkscape:pagecheckerboard="0"
     inkscape:deskcolor="#d1d1d1"
     inkscape:zoom="1.1690692"
     inkscape:cx="256.18671"
     inkscape:cy="100.50731"
     inkscape:window-width="1440"
     inkscape:window-height="830"
     inkscape:window-x="0"
     inkscape:window-y="38"
     inkscape:window-maximized="0"
     inkscape:current-layer="svg89" />
  <defs
     id="defs1">
    <style
       id="style1">.a{fill:#1c4220;}.b{fill:#009a44;}.c{fill:#279989;}.d{fill:none;}.e{fill:#68b8ac;}</style>
  </defs>
  <title
     id="title1">Artboard 1</title>
  <path
     class="c"
     d="m 90.115014,123.53237 c -14.33,18.89 -19.15,37.43 -44.95,45 -16.38,4.79 -31.44,-1.36 -39.8700001,-16.8 -13.75,-25.2 0.8,-56.239995 26.1400001,-61.899995 24.24,-5.43 53.83,13.739995 65.85,-9.33 8.999996,-17.22 -10.26,-34.28 -17.81,-45.69 -6.43,-9.73 -11.5,-28.0000003 2.49,-33.2500003 14.17,-5.29 22.339996,3.61 28.619996,15.3400003 4.29,8 4.8,17.89 3.45,27.22 -0.93,6.4 -2.12,13.37 -2,20.07 0,3.43 -0.25,8.07 1,11.28 2,5.28 6.86,9.11 5.64,15 -0.42,2 -1.85,3.36 -3.16,4.84 -7.46,8.449995 -15,16.769995 -22.729996,24.999995 a 36.6,36.6 0 0 0 -2.67,3.22 z"
     id="path36" />
  <path
     class="c"
     d="m 133.09501,120.35237 c 5.4,-16.45 27.36,-15.62 41.3,-17.54 8,-1.1 14.28,-3.239995 20.73,-8.109995 a 60.76,60.76 0 0 0 15.23,-16.49 c 6.14,-10 8.13,-22.39 -0.11,-31.85 -12.92,-14.85 -30,-11.74 -44.9,-2 -14.56,9.54 -21.26,25.95 -33.15,38.07 -5.87,6 -11.33,12.53 -17.68,18.819995 -3.52,3.48 -7.37,8.22 -6.83,14 0.25,2.74 1.73,5.91 2.33,8.64 a 74.69,74.69 0 0 1 1.35,9.52 c 0.82,10 -3.28,16.25 -4.55,31.28 -1.69,19.85 5.87,36.34 27.73,31.58 17.26,-3.77 15.27,-29.92 6.87,-44.25 -5.45,-9.31 -12.8,-18.05 -8.32,-31.67 z"
     id="path37" />
  <path
     class="b"
     d="m 181.07501,109.17237 c -14.16,-3.46 -40.45,-4.51 -45.8,13 -5.35,17.51 15,33.07 30.39,37.44 15.39,4.37 40.58,4.72 46.43,-13.75 5.85,-18.47 -16.86,-33.23 -31.02,-36.69 z"
     id="path38" />
  <path
     class="b"
     d="m 120.02501,80.832375 c 10.93,5.93 24.63,-18.78 29,-25.43 4.37,-6.65 16.65,-34.91 5.65,-40.65 -12.5,-6.5300003 -25.71,17.63 -30.3,25.78 -4.85,8.58 -17.14,33.37 -4.35,40.3 z"
     id="path39" />
  <path
     class="b"
     d="m 47.675014,83.082375 c 13.59,6.14 39.22,12.35 47.17,-5.18 7.949996,-17.53 -12.84,-32.31 -26.86,-38.69 -14.02,-6.38 -38.79,-13.41 -46.83,3.93 -8.04,17.34 12.91,33.81 26.52,39.94 z"
     id="path40" />
  <path
     class="b"
     d="m 104.07501,119.47237 c -10.269996,-4.95 -22.999996,23.4 -26.139996,30.42 -3.14,7.02 -13.5,37.5 -1.91,42.08 11.59,4.58 24.859996,-23.46 27.999996,-31.37 3.14,-7.91 10.33,-36.19 0.05,-41.13 z"
     id="path41" />
  <path
     class="d"
     d="m 194.86501,89.252375 a 1,1 0 0 1 0.25,0 h 0.17 v -0.22 l 0.18,-0.34 v 0 l -0.89,0.24 a 1,1 0 0 1 0.29,0.32 z"
     id="path42" />
  <path
     class="d"
     d="m 195.26501,91.902375 v 2.1 h 0.41 l 0.06,-2.2 a 0.81,0.81 0 0 1 -0.22,-0.07 1,1 0 0 1 -0.25,0.17 z"
     id="path43" />
  <path
     class="d"
     d="m 194.83501,91.902375 a 0.83,0.83 0 0 1 -0.41,-0.25 h -0.05 v 2.3 h 0.46 z"
     id="path44" />
  <path
     class="d"
     d="m 104.07501,119.47237 c -10.269996,-4.95 -22.999996,23.4 -26.139996,30.42 -3.14,7.02 -13.5,37.5 -1.91,42.08 11.59,4.58 24.859996,-23.46 27.999996,-31.37 3.14,-7.91 10.33,-36.19 0.05,-41.13 z"
     id="path45" />
  <path
     class="d"
     d="m 197.29501,91.262375 h -0.2 a 0.81,0.81 0 0 1 -0.44,-0.13 l 0.06,2.32 1,-0.81 v -1.14 a 0.72,0.72 0 0 1 -0.42,-0.24 z"
     id="path46" />
  <path
     class="d"
     d="m 195.81501,89.542375 v -0.84 l -0.34,0.6 a 0.93,0.93 0 0 1 0.34,0.24 z"
     id="path47" />
  <path
     class="d"
     d="m 131.16501,87.652375 a 13,13 0 0 0 2.95,-3.21 v -0.28 a 16.86,16.86 0 0 1 -3.16,3.11 h 0.21 z"
     id="path48" />
  <path
     class="d"
     d="m 134.43501,85.682375 v -0.41 h -0.32 v -0.57 a 13.07,13.07 0 0 1 -2.95,3.13 v 0.29 h 0.45 a 3.9,3.9 0 0 1 2.82,-2.44 z"
     id="path49" />
  <path
     class="d"
     d="m 136.24501,83.902375 v 0 0.2 a 13.33,13.33 0 0 0 3,3.41 v -0.31 h 0.31 a 16.61,16.61 0 0 1 -3.31,-3.3 z"
     id="path50" />
  <path
     class="d"
     d="m 134.14501,83.902375 0.06,-0.12 a 23.72,23.72 0 0 1 -3.63,3.12 v 0.35 h 0.1 a 16.69,16.69 0 0 0 3.47,-3.35 z"
     id="path51" />
  <path
     class="d"
     d="m 139.83501,87.272375 h 0.66 a 23.28,23.28 0 0 1 -4.37,-3.75 16.94,16.94 0 0 0 3.71,3.75 z"
     id="path52" />
  <path
     class="d"
     d="m 138.91501,88.122375 h 0.37 v -0.35 a 13.41,13.41 0 0 1 -3,-3.33 v 0.83 h -0.32 v 0.38 a 3.89,3.89 0 0 1 2.95,2.47 z"
     id="path53" />
  <path
     class="d"
     d="m 67.985014,39.212375 c -14,-6.38 -38.79,-13.41 -46.83,3.93 a 18.49,18.49 0 0 0 -1.78,8.35 h 3.3 v -1.39 h 0.29 v 1.39 h 0.67 v 0.82 0 l 1.52,4.42 -1.48,4.27 1.52,4.41 -0.11,0.32 0.4,0.53 v -8.42 h 3.18 v -1 h -3.23 v -7.67 h 6.35 v 3.64 h 2.32 v 22 l 0.63,0.48 v -23.95 h 3.17 v -1 h -3.17 v -4.35 h 6.34 v 3.64 h 2.33 v 31.27 q 0.36,0.21 0.72,0.39 c 0.15,-12.19 1.14,-24.32 1.81,-27.74 h 1.28 v -0.86 h 1.3 v -11.79 h 0.31 v -6.93 h 0.17 v 6.93 h 0.3 v 11.83 h 0.19 v -7.71 h 0.39 v 7.71 h 0.72 v 0.86 h 1.29 c 0.65,3.31 1.6,14.91 1.79,26.76 h 0.57 v -3.24 h 1 v -0.76 h -0.57 v -1.25 h 1.09 v -7.41 h 0.33 v -1.25 h 0.48 v -2 h 0.44 v -1.66 l 1.42,-4.35 1.5,4.35 v 1.62 h 0.44 v 2 h 0.49 v 1.25 h 0.32 v 7 h 0.49 v -0.6 h 0.36 v -0.6 h 0.41 v -0.55 h 0.41 v -0.6 h 0.35 v -0.61 h 0.39 v -0.6 h 0.34 v -0.6 h 0.47 v -0.59 h 0.23 v -0.6 h 0.66 v 0.6 h 0.23 v 0.6 h 0.47 v 0.6 h 0.34 v 0.6 h 0.34 v 0.61 h 0.35 v 0.59 h 0.41 v 0.6 h 0.4 v 0.6 h 0.37 v 0.6 h 0.11 v -7 h 0.36 v -1.26 h 0.48 v -2 h 0.44 v -1.66 l 1.42,-4.35 1.5,4.35 v 1.62 h 0.44 v 2 h 0.49 v 1.25 h 0.32 v 7.45 h 1.21 v 1.25 h -0.83 v 0.76 h 1.41 v 10.35 h 0.37 v -27.74 h 0.84 v -2.82 h 1.64 v -4.15 h 0.33 v 4.15 h 1.38 l 0.49,2.86 h 2.23 l 3,17 h 0.67 v -8.74 h 0.77 v -2.63 h 1.5 v -3.8 h 0.3 v 3.8 h 1.27 l 0.46,2.63 h 2.06 l 0.87,5 h 2.11 v 2.22"
     id="path54" />
  <rect
     class="d"
     x="122.72501"
     y="74.442375"
     width="0.94999999"
     height="2.55"
     id="rect54" />
  <rect
     class="d"
     x="124.49501"
     y="74.442375"
     width="0.94"
     height="2.55"
     id="rect55" />
  <polygon
     class="d"
     points="121.92,67.11 122.69,67.75 122.69,67.11 "
     id="polygon55"
     transform="translate(-0.32498609,-0.09762531)" />
  <polygon
     class="d"
     points="119.41,73.43 120.04,73.96 120.04,73.43 "
     id="polygon56"
     transform="translate(-0.32498609,-0.09762531)" />
  <rect
     class="d"
     x="120.95501"
     y="74.442375"
     width="0.94"
     height="2.55"
     id="rect56" />
  <polygon
     class="d"
     points="121.42,70.64 121.42,69.95 120.61,69.95 "
     id="polygon57"
     transform="translate(-0.32498609,-0.09762531)" />
  <path
     class="d"
     d="m 22.675014,51.792375 h -3.29 v 0.52 h 3.29 z"
     id="path57" />
  <rect
     class="d"
     x="126.26501"
     y="74.442375"
     width="0.94999999"
     height="2.55"
     id="rect57" />
  <rect
     class="d"
     x="22.945015"
     y="51.792374"
     width="0.38"
     height="0.52999997"
     id="rect58" />
  <polygon
     class="d"
     points="126.89,67.11 126.13,67.11 126.13,67.75 "
     id="polygon58"
     transform="translate(-0.32498609,-0.09762531)" />
  <polygon
     class="d"
     points="128.21,69.95 127.4,69.95 127.4,70.64 "
     id="polygon59"
     transform="translate(-0.32498609,-0.09762531)" />
  <polygon
     class="d"
     points="129.37,73.43 128.78,73.43 128.78,73.93 "
     id="polygon60"
     transform="translate(-0.32498609,-0.09762531)" />
  <path
     class="a"
     d="m 129.97501,78.792375 v -0.63 h -0.88 v -0.6 h -0.64 v -0.57 h -0.42 v -2.55 h 0.42 v -0.28 l 1,-0.83 h 1.58 v -0.55 l -3.95,-1.29 v -0.59 l 1.2,-1 h 0.83 v -0.63 l -3.3,-1.08 v -0.29 l 1,-0.88 h 0.86 v -0.49 l -2.94,-1 v -0.42 l -0.69,-1 -0.69,1 v 0.42 l -2.94,1 v 0.49 h 0.87 l 1,0.88 v 0.25 l -3.3,1.08 v 0.67 h 0.83 l 1.2,1 v 0.62 l -4,1.29 v 0.55 h 1.66 l 1,0.87 v 0.24 h 0.42 v 2.55 h -0.42 v 0.57 h -0.64 v 0.6 h -0.88 v 0.63 h -0.6 v 0.23 a 10,10 0 0 0 2.43,1.81 c 3.37,1.83 7,0.74 10.55,-1.83 v -0.21 z m -1.52,-5.46 h 0.59 l -0.59,0.5 z m -1.38,-3.43 h 0.81 l -0.81,0.69 z m -1.27,-2.84 h 0.76 l -0.76,0.64 z m -6.13,6.84 -0.63,-0.53 h 0.63 z m 0.57,-4 h 0.81 v 0.69 z m 1.62,7.14 h -1 v -2.6 h 1 z m 0.46,-9.34 -0.77,-0.64 h 0.77 z m 1.35,9.29 h -1 v -2.55 h 1 z m 1.77,0 h -1 v -2.55 h 1 z m 1.77,0 h -1 v -2.55 h 1 z"
     id="path60" />
  <rect
     class="b"
     x="124.49501"
     y="74.442375"
     width="0.94"
     height="2.55"
     id="rect60" />
  <rect
     class="b"
     x="126.26501"
     y="74.442375"
     width="0.94999999"
     height="2.55"
     id="rect61" />
  <rect
     class="b"
     x="122.72501"
     y="74.442375"
     width="0.94999999"
     height="2.55"
     id="rect62" />
  <polygon
     class="b"
     points="121.92,67.11 122.69,67.75 122.69,67.11 "
     id="polygon62"
     transform="translate(-0.32498609,-0.09762531)" />
  <rect
     class="b"
     x="120.95501"
     y="74.442375"
     width="0.94"
     height="2.55"
     id="rect63" />
  <polygon
     class="b"
     points="120.61,69.95 121.42,70.64 121.42,69.95 "
     id="polygon63"
     transform="translate(-0.32498609,-0.09762531)" />
  <polygon
     class="b"
     points="127.4,69.95 127.4,70.64 128.21,69.95 "
     id="polygon64"
     transform="translate(-0.32498609,-0.09762531)" />
  <polygon
     class="b"
     points="128.78,73.43 128.78,73.93 129.37,73.43 "
     id="polygon65"
     transform="translate(-0.32498609,-0.09762531)" />
  <polygon
     class="b"
     points="126.13,67.11 126.13,67.75 126.89,67.11 "
     id="polygon66"
     transform="translate(-0.32498609,-0.09762531)" />
  <polygon
     class="b"
     points="120.04,73.96 120.04,73.43 119.41,73.43 "
     id="polygon67"
     transform="translate(-0.32498609,-0.09762531)" />
  <path
     class="a"
     d="m 23.675014,52.312375 v 0 -0.82 h -0.67 v -1.39 h -0.33 v 1.39 h -3.3 c 0,0.1 0,0.2 0,0.3 h 3.3 v 0.52 h -3.26 c 0.34,4.76 2.49,9.3 5.62,13.42 l 0.11,-0.32 -1.47,-4.41 1.52,-4.27 z m -0.31,0 h -0.37 v -0.52 h 0.37 z m 72.48,20.71 v 2.22 a 21.85,21.85 0 0 1 -1,2.67 c -8,17.52 -33.58,11.31 -47.18,5.17 -1.14,-0.51 -2.32,-1.09 -3.54,-1.75 0.15,-12.19 1.14,-24.32 1.81,-27.74 h 1.28 v -0.86 h 1.3 v -11.83 h 0.31 v -6.93 h 0.17 v 6.93 h 0.3 v 11.83 h 0.19 v -7.71 h 0.39 v 7.71 h 0.72 v 0.86 h 1.29 c 0.65,3.31 1.6,14.91 1.79,26.76 h 0.57 v -3.24 h 1 v -0.76 h -0.57 v -1.25 h 1.09 v -7.41 h 0.33 v -1.25 h 0.48 v -2 h 0.44 v -1.66 l 1.42,-4.35 1.5,4.35 v 1.62 h 0.44 v 2 h 0.49 v 1.25 h 0.32 v 7 h 0.49 v -0.6 h 0.36 v -0.6 h 0.41 v -0.55 h 0.41 v -0.6 h 0.35 v -0.61 h 0.39 v -0.6 h 0.34 v -0.6 h 0.47 v -0.59 h 0.23 v -0.6 h 0.66 v 0.6 h 0.23 v 0.6 h 0.47 v 0.6 h 0.34 v 0.6 h 0.34 v 0.61 h 0.35 v 0.59 h 0.41 v 0.6 h 0.4 v 0.6 h 0.37 v 0.6 h 0.11 v -7 h 0.36 v -1.26 h 0.48 v -2 h 0.44 v -1.66 l 1.42,-4.35 1.5,4.35 v 1.62 h 0.44 v 2 h 0.49 v 1.25 h 0.32 v 7.45 h 1.21 v 1.25 h -0.83 v 0.76 h 1.41 v 10.35 h 0.37 v -27.74 h 0.84 v -2.82 h 1.64 v -4.15 h 0.33 v 4.15 h 1.38 l 0.49,2.86 h 2.23 l 3,17 h 0.67 v -8.74 h 0.77 v -2.63 h 1.5 v -3.8 h 0.3 v 3.8 h 1.27 l 0.46,2.63 h 2.06 l 0.87,5 z m -54.77,-23.39 h 2.33 v 31.27 a 67.64,67.64 0 0 1 -8.67,-5.68 v -23.88 h 3.17 v -1 h -3.17 v -4.35 h 6.34 z m -9.29,3.18 h 2.32 v 22 a 52.59,52.59 0 0 1 -8.67,-8.52 v -8.45 h 3.18 v -1 h -3.18 v -7.67 h 6.35 z"
     id="path67" />
  <path
     class="b"
     d="m 19.405014,51.792375 c 0,0.17 0,0.35 0,0.52 h 3.27 v -0.52 z"
     id="path68" />
  <rect
     class="b"
     x="22.945015"
     y="51.792374"
     width="0.38"
     height="0.52999997"
     id="rect68" />
  <path
     class="a"
     d="m 117.59501,83.902375 v 3.46 h -3.45 v -5.68 h -4.67 l -0.67,-1 0.71,-1.06 -0.73,-1.05 0.7,-1.07 -0.72,-1 0.7,-1.06 -0.72,-1 0.7,-1.07 -0.73,-1 0.71,-1.07 -0.75,-1.16 0.7,-1.06 -0.7,-1.05 0.7,-1.07 -0.7,-1.06 0.71,-1.06 -0.71,-1.04 0.7,-1.07 -0.72,-1 0.7,-1.06 h -2.38 v -0.77 l 4,-2.24 h -1.3 v -1.48 h -8.77 v 1.49 h -1.229996 l 3.999996,2.23 v 0.71 h -2.33 l 0.7,1.06 -0.73,1 0.7,1.07 -0.75,1.16 0.7,1.06 -0.72,1 0.7,1.07 -0.73,1.05 0.71,1.06 -0.73,1.05 0.7,1.07 -0.72,1 0.7,1.07 -0.73,1 0.71,1.06 -0.73,1 0.7,1.07 -0.72,1.05 0.7,1.06 -0.72,1.05 0.7,1.07 -0.73,1 0.71,1.06 -0.65,0.94 h -2.549996 v -2.38 h 0.66 v -0.53 h -3.28 c -12.76,19.469995 -41.17,1.81 -64.51,7 a 38.09,38.09 0 0 0 -17.11,8.9 c 5.24,1.399995 10.48,2.739995 15.72,3.999995 h -0.14 c 25.35,-9.779995 50,-12.569995 37.21,4.19 -0.48,0.62 -0.91,1.22 -1.29,1.79 a 119.42,119.42 0 0 0 36.259996,-2.14 l 4.14,-0.92 q 4.64,-5.15 9.23,-10.339995 c 1.31,-1.48 2.74,-2.82 3.16,-4.84 a 9.92,9.92 0 0 0 -1.02,-6.52 z"
     id="path69" />
  <path
     class="e"
     d="m 110.01501,123.90237 a 74.69,74.69 0 0 1 1.35,9.52 q 0.06,0.81 0.09,1.59 v -0.15 a 44.5,44.5 0 0 1 16.7,9.53 c 5.75,5.4 11.24,10.24 16.49,14.58 l 0.12,0.33 a 43.77,43.77 0 0 0 -3.35,-7.27 c -5.45,-9.29 -12.8,-18 -8.32,-31.65 2.36,-7.19 7.89,-11.08 14.53,-13.34 -14.44,2.32 -28.07,5 -40,7.2 0,0.34 0,0.67 0.05,1 0.26,2.73 1.74,5.9 2.34,8.66 z"
     id="path70" />
  <path
     class="e"
     d="m 67.115014,106.90237 c 17.74,-23.189995 -36.29,-8.999995 -64.5700001,9.44 a 43.3,43.3 0 0 0 -0.68,27.18 c 28.0000001,-7 58.1100001,-13.18 83.0700001,-12.68 1.61,-2.42 3.31,-4.88 5.18,-7.33 a 36.6,36.6 0 0 1 2.61,-3.2 l 3.81,-4.09 c -26.3,4.68 -40.53,5.22 -29.42,-9.32 z"
     id="path71" />
  <path
     class="a"
     d="m 198.76501,89.842375 a 0.78,0.78 0 0 0 -0.22,0 0.76,0.76 0 0 0 -0.67,-0.4 0.74,0.74 0 0 0 -0.6,0.29 0.57,0.57 0 0 0 -0.18,0 0.71,0.71 0 0 0 -0.42,0.17 v -1.42 l 0.49,0.46 0.25,0.67 0.19,-0.6 -0.9,-0.73 1.44,0.83 -0.67,-0.75 h 1 l 1,0.62 -0.8,-1.08 -1.49,0.15 0.24,-0.15 1.65,-0.38 -1.38,0.21 1,-0.61 c 0,0 -0.82,0.26 -1.51,0.46 l 1,-0.77 2.09,-1 -2.19,0.16 -1.51,1.32 1,-2.1 -0.91,0.66 0.14,-0.74 -0.53,-1.16 -0.36,1.18 0.09,0.72 -0.66,-1.14 0.67,2.3 -1,-1.52 c 0,0 0.27,0.69 0.55,1.35 l -0.83,-0.87 1.1,1.59 -1.35,-1.51 -2.36,0.21 2.15,0.69 1.16,0.7 -1.37,-0.46 -1.39,-0.13 1.24,0.44 0.44,0.36 -0.92,0.05 c 0,0 -0.62,0.46 -0.69,0.5 l 0.81,-0.27 0.89,0.05 a 6,6 0 0 0 0.6,0.12 l -0.7,0.5 a 1,1 0 0 0 -0.24,0 0.88,0.88 0 0 0 -0.7,0.34 0.76,0.76 0 0 0 -0.21,0 0.92,0.92 0 0 0 0,1.83 0.85,0.85 0 0 0 0.23,0 l 0.09,0.1 a 0.79,0.79 0 0 0 0.39,0.62 v 2.38 h -0.23 v -1.39 a 1.42,1.42 0 0 0 -0.6,-1.16 l -0.58,-0.41 -0.58,0.41 a 1.42,1.42 0 0 0 -0.6,1.16 v 1.29 h -0.22 v -2.53 h 0.1 v -0.21 h -3.44 v 0.21 h 0.1 v 2.53 h -0.4 v -2.53 h 0.1 v -0.21 h -3.44 v 0.21 h 0.1 v 2.53 h -0.42 v -2.53 h 0.1 v -0.21 h -1.94 l -0.25,-0.43 a 0.37,0.37 0 0 0 0,-0.11 0.57,0.57 0 0 0 -1.13,0 0.57,0.57 0 0 0 0.39,0.54 h -0.52 v 0.21 h 0.1 v 2.53 h -0.39 v -1.23 a 1.81,1.81 0 0 0 -0.76,-1.48 l -0.75,-0.52 -0.74,0.52 a 1.82,1.82 0 0 0 -0.77,1.48 v 1.23 h -0.33 l -0.13,-5.53 0.67,0.62 0.26,0.58 v -0.64 l -0.89,-0.73 1.44,0.83 -0.4,-0.61 h 0.72 l 1,0.48 -0.7,-1.08 -1.5,0.15 0.25,-0.15 1.65,-0.38 -1.39,0.21 1,-0.61 -1.51,0.46 0.95,-0.74 2.07,-0.83 h -2.13 l -1.37,1.25 0.37,-0.87 0.62,-1.11 -1,0.61 0.13,-0.74 -0.53,-1.16 -0.35,1.18 c 0,0 0,0.31 0.09,0.72 l -1,-1 0.76,1.33 0.25,0.84 -1,-1.52 c 0,0 0.27,0.69 0.55,1.35 l -0.83,-0.87 1.09,1.59 -1.35,-1.51 -2.21,-0.06 2.09,0.8 1.08,0.86 -2.31,-0.31 0.78,0.55 h -0.43 c 0,0 -0.73,0.93 -0.79,1 l 1.06,-0.54 h 1.35 l -1.13,0.8 1,-0.37 0.72,-0.23 -0.31,0.5 -0.08,0.85 0.31,-0.8 0.32,-0.36 -0.14,5.28 h -0.28 v -1.32 a 1.82,1.82 0 0 0 -0.77,-1.48 l -0.74,-0.52 -0.75,0.52 a 1.83,1.83 0 0 0 -0.76,1.48 v 1.23 h -0.45 v -9.5 h 0.2 l 0.33,-0.45 h -0.53 v -1.57 h 0.2 l 0.33,-0.46 h -0.53 v -0.64 l -0.46,-2.31 -0.45,2.31 v 0.64 h -0.54 l 0.34,0.46 h 0.2 v 1.57 h -0.54 l 0.34,0.45 h 0.2 v 2 a 2.05,2.05 0 0 0 -1.12,-0.34 2,2 0 0 0 -2,1.58 h -1 a 2,2 0 0 0 -0.58,-1 v -4.48 h 0.13 l 0.22,-0.48 h -0.36 v -1.26 h 0.14 l 0.22,-0.48 h -0.36 v -1.36 h 0.14 l 0.22,-0.47 h -0.36 v -1.93 l -0.31,-4.8 -0.3,4.8 v 1.93 h -0.37 l 0.23,0.47 h 0.14 v 1.36 h -0.37 l 0.23,0.48 h 0.14 v 1.26 h -0.37 l 0.23,0.48 h 0.14 v 4 a 2.05,2.05 0 0 0 -0.78,-0.16 2,2 0 0 0 -1.31,0.49 v -4.33 h 0.13 l 0.23,-0.48 h -0.36 v -1.26 h 0.13 l 0.23,-0.48 h -0.36 v -1.36 h 0.13 l 0.23,-0.47 h -0.36 v -1.93 l -0.31,-4.8 -0.31,4.8 v 1.93 h -0.36 l 0.22,0.47 h 0.14 v 1.36 h -0.36 l 0.22,0.48 h 0.14 v 1.26 h -0.36 l 0.22,0.48 h 0.14 v 5.3 c 0,0 0,0.1 0,0.16 h -0.54 a 2.9,2.9 0 0 0 0.11,-0.79 2.8,2.8 0 0 0 -2,-2.68 v -0.26 l -0.11,-2.21 -0.14,2.21 v 0.19 a 2.94,2.94 0 0 0 -0.51,-0.05 2.34,2.34 0 0 0 -0.38,0 2.79,2.79 0 0 0 -2.42,-2 v -0.78 l -0.14,-2.2 -0.14,2.2 v 0.76 a 2.82,2.82 0 0 0 -2.69,2 h -0.11 a 2.94,2.94 0 0 0 -0.51,0.05 v -0.4 l -0.14,-2.2 -0.14,2.2 v 0.46 a 2.81,2.81 0 0 0 -2,2.69 2.9,2.9 0 0 0 0.11,0.79 h -0.48 v -5.44 h 0.14 l 0.23,-0.48 h -0.37 v -1.26 h 0.14 l 0.23,-0.48 h -0.37 v -1.36 h 0.14 l 0.23,-0.47 h -0.37 v -1.93 l -0.3,-4.8 -0.31,4.8 v 1.93 h -0.36 l 0.22,0.47 h 0.14 v 1.36 h -0.36 l 0.22,0.48 h 0.14 v 1.26 h -0.36 l 0.22,0.48 h 0.14 v 4.74 a 2,2 0 0 0 -1.65,-0.86 2.09,2.09 0 0 0 -0.51,0.07 v -4 h 0.13 l 0.23,-0.48 h -0.36 v -1.21 h 0.13 l 0.23,-0.48 h -0.36 v -1.36 h 0.13 l 0.23,-0.47 h -0.36 v -1.93 l -0.31,-4.8 -0.31,4.8 v 1.93 h -0.36 l 0.22,0.47 h 0.14 v 1.36 h -0.36 l 0.22,0.48 h 0.14 v 1.26 h -0.36 l 0.22,0.48 h 0.14 v 4.23 a 2,2 0 0 0 -0.84,1.23 h -1 a 2,2 0 0 0 -3.08,-1.24 v -2 h 0.2 l 0.33,-0.45 h -0.53 v -1.55 h 0.2 l 0.33,-0.46 h -0.53 v -0.64 l -0.46,-2.31 -0.45,2.31 v 0.64 h -0.53 l 0.33,0.46 h 0.2 v 1.57 h -0.53 l 0.33,0.45 h 0.2 v 2.79 h -0.68 v -0.7 h -0.35 v 0.7 0 a 23.69,23.69 0 0 1 -4.87,-4.22 l -0.13,-0.33 v -0.75 h -0.31 l -0.26,-0.65 -0.26,0.65 h -0.31 v 0.75 l -0.26,0.66 a 24.75,24.75 0 0 1 -3.78,3.37 v -2.64 c -5.27,5.51 -10.3,11.43 -16.06,17.139995 a 37.31,37.31 0 0 0 -3,3.24 l 0.72,-0.15 2.1,-2.15 2,1.27 1.66,-2.56 2.35,1.75 2.68,-4.829995 3.61,3.539995 1.79,-5.239995 4.36,3.999995 1.1,-4.999995 4.24,4 1.6,-3.84 2.8,3.2 2.23,-2.09 1.41,1.66 2.72,-0.92 1.34,0.54 v 0 a 231.76,231.76 0 0 1 39.7,0.38 40.23,40.23 0 0 0 5.23,-3.38 q 0.81,-0.6 1.59,-1.23 l -0.05,-2.29 a 0.81,0.81 0 0 0 0.44,0.13 h 0.2 a 0.72,0.72 0 0 0 0.41,0.24 v 1.16 l 0.43,-0.36 v -0.83 a 0.73,0.73 0 0 0 0.28,-0.17 0.79,0.79 0 0 0 0.35,0.09 0.78,0.78 0 0 0 0.77,-0.78 0.77,0.77 0 0 0 -0.79,-0.79 z m -68.19,-2.57 v -0.37 a 23.72,23.72 0 0 0 3.63,-3.16 l -0.06,0.12 a 16.69,16.69 0 0 1 -3.47,3.41 z m 3.54,-3.11 v 0.28 a 13,13 0 0 1 -2.95,3.21 v -0.38 h -0.21 a 16.86,16.86 0 0 0 3.16,-3.11 z m 0.32,1.52 a 3.9,3.9 0 0 0 -2.82,2.44 h -0.45 v -0.29 a 13.07,13.07 0 0 0 2.95,-3.13 v 0.57 h 0.32 z m 4.85,2.44 h -0.37 a 3.89,3.89 0 0 0 -3,-2.47 v -0.38 h 0.32 v -0.83 a 13.41,13.41 0 0 0 3,3.33 z m 0,-0.85 v 0.31 a 13.33,13.33 0 0 1 -3,-3.41 v -0.2 0 a 16.61,16.61 0 0 0 3.35,3.35 z m 0.55,0 a 16.94,16.94 0 0 1 -3.71,-3.75 23.28,23.28 0 0 0 4.37,3.75 z m 41.52,4 a 0.56,0.56 0 0 0 0.17,-0.09 l 0.05,0.09 z m 0.31,0 -0.08,-0.15 a 0.52,0.52 0 0 0 0.09,-0.22 l 0.18,0.32 z m 13.17,2.74 h -0.46 v -2.3 h 0.05 a 0.83,0.83 0 0 0 0.41,0.25 z m 0.28,-4.77 a 1,1 0 0 0 -0.25,0 1,1 0 0 0 -0.31,-0.32 l 0.89,-0.24 v 0 l -0.18,0.34 v 0.22 z m 0.58,4.77 h -0.43 v -2.11 a 1,1 0 0 0 0.27,-0.17 0.81,0.81 0 0 0 0.22,0.07 z m 0.12,-4.44 a 0.93,0.93 0 0 0 -0.32,-0.24 l 0.34,-0.6 z"
     id="path72" />
  <path
     class="e"
     d="m 135.94501,85.652375 a 3.89,3.89 0 0 1 3,2.47 h 0.37 v -0.35 a 13.41,13.41 0 0 1 -3,-3.33 v 0.83 h -0.32 z"
     id="path73" />
  <path
     class="e"
     d="m 140.49501,87.272375 a 23.28,23.28 0 0 1 -4.37,-3.75 16.94,16.94 0 0 0 3.71,3.75 z"
     id="path74" />
  <path
     class="e"
     d="m 139.28501,87.582375 v -0.31 h 0.31 a 16.61,16.61 0 0 1 -3.35,-3.37 v 0 0.2 a 13.33,13.33 0 0 0 3.04,3.48 z"
     id="path75" />
  <path
     class="e"
     d="m 134.14501,83.902375 0.06,-0.12 a 23.72,23.72 0 0 1 -3.63,3.12 v 0.35 h 0.1 a 16.69,16.69 0 0 0 3.47,-3.35 z"
     id="path76" />
  <path
     class="e"
     d="m 150.36501,76.262375 0.18,-2.86 c -0.8,0.56 -1.6,1.11 -2.42,1.66 l 0.08,1.2 v 1.93 h 0.36 l -0.23,0.47 h -0.13 v 1.36 h 0.36 l -0.23,0.48 h -0.13 v 1.26 h 0.36 l -0.23,0.48 h -0.13 v 4 a 2.09,2.09 0 0 1 0.51,-0.07 2,2 0 0 1 1.65,0.86 v -4.79 h -0.14 l -0.22,-0.48 h 0.36 v -1.26 h -0.14 l -0.22,-0.48 h 0.36 v -1.36 h -0.14 l -0.22,-0.47 h 0.36 z"
     id="path77" />
  <path
     class="e"
     d="m 130.57501,84.902375 v 1.89 a 24.75,24.75 0 0 0 3.78,-3.37 l 0.14,-0.34 c -1.31,0.61 -2.61,1.22 -3.92,1.82 z"
     id="path78" />
  <path
     class="e"
     d="m 147.58501,76.262375 0.06,-0.88 a 128,128 0 0 1 -11.89,7 v 0.31 l 0.13,0.33 a 23.69,23.69 0 0 0 4.87,4.22 v 0 -0.7 h 0.35 v 0.7 h 0.68 v -2.76 h -0.2 l -0.33,-0.45 h 0.53 v -1.57 h -0.2 l -0.33,-0.46 h 0.53 v -0.64 l 0.45,-2.31 0.46,2.31 v 0.64 h 0.53 l -0.33,0.46 h -0.22 v 1.57 h 0.53 l -0.33,0.45 h -0.2 v 2 a 2,2 0 0 1 3.08,1.24 h 1 a 2,2 0 0 1 0.84,-1.23 v -4.25 h -0.14 l -0.22,-0.48 h 0.36 v -1.26 h -0.14 l -0.22,-0.48 h 0.36 v -1.36 h -0.14 l -0.22,-0.47 h 0.36 z"
     id="path79" />
  <path
     class="e"
     d="m 134.11501,84.442375 v -0.28 a 16.86,16.86 0 0 1 -3.16,3.11 h 0.21 v 0.38 a 13,13 0 0 0 2.95,-3.21 z"
     id="path80" />
  <path
     class="e"
     d="m 134.43501,85.682375 v -0.41 h -0.32 v -0.57 a 13.07,13.07 0 0 1 -2.95,3.13 v 0.29 h 0.45 a 3.9,3.9 0 0 1 2.82,-2.44 z"
     id="path81" />
  <path
     class="e"
     d="m 194.55501,88.902375 a 1,1 0 0 1 0.31,0.32 1,1 0 0 1 0.25,0 h 0.17 v -0.22 l 0.18,-0.34 v 0 z"
     id="path82" />
  <path
     class="e"
     d="m 195.81501,89.542375 v -0.84 l -0.34,0.6 a 0.93,0.93 0 0 1 0.34,0.24 z"
     id="path83" />
  <path
     class="e"
     d="m 195.26501,93.982375 h 0.41 l 0.06,-2.2 a 0.81,0.81 0 0 1 -0.22,-0.07 1,1 0 0 1 -0.27,0.17 z"
     id="path84" />
  <path
     class="e"
     d="m 192.92501,52.982375 h -2.93 v -0.16 a 3.94,3.94 0 0 1 1.87,-2.69 3.72,3.72 0 0 0 0.61,-0.43 4.25,4.25 0 0 1 4.07,-1 9.93,9.93 0 0 0 2.9,0.51 9.34,9.34 0 0 0 6.57,-2.47 3.94,3.94 0 0 1 3.49,-1 h 0.14 c -8.64,-9.49 -19.06,-11.18 -29.42,-8.35 a 4,4 0 0 0 -0.13,0.78 3.12,3.12 0 0 0 0,0.53 c -4.1,1.35 -4,8.57 -2.41,13 a 4,4 0 0 1 0.23,1.27 h -2.54 a 209.36,209.36 0 0 1 -24.59,20.26 l 0.19,3 v 1.93 h 0.37 l -0.23,0.47 h -0.14 v 1.36 h 0.37 l -0.23,0.48 h -0.14 v 1.26 h 0.37 l -0.23,0.48 h -0.14 v 5.49 h 0.48 a 2.9,2.9 0 0 1 -0.11,-0.79 2.81,2.81 0 0 1 2,-2.69 v -0.46 l 0.14,-2.2 0.14,2.2 v 0.4 a 2.94,2.94 0 0 1 0.51,-0.05 h 0.11 a 2.82,2.82 0 0 1 2.69,-2 v -0.76 l 0.14,-2.2 0.14,2.2 v 0.78 a 2.79,2.79 0 0 1 2.42,2 2.34,2.34 0 0 1 0.38,0 2.94,2.94 0 0 1 0.51,0.05 v -0.19 l 0.14,-2.21 0.14,2.21 v 0.26 a 2.8,2.8 0 0 1 2,2.68 2.9,2.9 0 0 1 -0.11,0.79 h 0.43 c 0,-0.06 0,-0.11 0,-0.16 v -5.3 h -0.14 l -0.22,-0.48 h 0.36 v -1.28 h -0.14 l -0.22,-0.48 h 0.36 v -1.36 h -0.14 l -0.22,-0.47 h 0.36 v -1.93 l 0.31,-4.8 0.31,4.8 v 1.93 h 0.36 l -0.23,0.47 h -0.13 v 1.36 h 0.36 l -0.23,0.48 h -0.13 v 1.26 h 0.36 l -0.23,0.48 h -0.13 v 4.37 a 2,2 0 0 1 1.31,-0.49 2.05,2.05 0 0 1 0.78,0.16 v -4 h -0.14 l -0.23,-0.48 h 0.37 v -1.3 h -0.14 l -0.23,-0.48 h 0.37 v -1.36 h -0.14 l -0.23,-0.47 h 0.37 v -1.93 l 0.3,-4.8 0.31,4.8 v 1.93 h 0.36 l -0.22,0.47 h -0.14 v 1.36 h 0.36 l -0.22,0.48 h -0.14 v 1.26 h 0.36 l -0.22,0.48 h -0.14 v 4.44 a 2,2 0 0 1 0.58,1 h 1 a 2,2 0 0 1 2,-1.58 2.05,2.05 0 0 1 1.12,0.34 v -2 h -0.2 l -0.34,-0.45 h 0.54 v -1.53 h -0.2 l -0.34,-0.46 h 0.54 v -0.64 l 0.45,-2.31 0.46,2.31 v 0.64 h 0.53 l -0.33,0.46 h -0.2 v 1.57 h 0.53 l -0.33,0.45 h -0.2 v 9.5 h 0.45 v -1.23 a 1.83,1.83 0 0 1 0.76,-1.48 l 0.75,-0.52 0.74,0.52 a 1.82,1.82 0 0 1 0.77,1.48 v 1.23 h 0.28 l 0.14,-5.28 -0.32,0.36 -0.31,0.8 0.08,-0.85 0.31,-0.5 -0.72,0.23 -1,0.37 1.13,-0.8 h -1.35 l -1.09,0.59 c 0.06,0 0.79,-1 0.79,-1 h 0.43 l -0.78,-0.55 2.31,0.31 -1.08,-0.86 -2.09,-0.8 2.21,0.06 1.35,1.51 -1.09,-1.59 0.83,0.87 c -0.28,-0.66 -0.55,-1.35 -0.55,-1.35 l 1,1.52 -0.25,-0.84 -0.69,-1.28 1,1 c 0,-0.41 -0.09,-0.72 -0.09,-0.72 l 0.35,-1.18 0.53,1.16 -0.13,0.74 1,-0.61 -0.62,1.11 -0.37,0.87 1.37,-1.25 h 2.13 l -2.07,0.83 -0.95,0.74 1.51,-0.46 -1,0.61 1.39,-0.21 -1.65,0.38 -0.25,0.15 1.5,-0.15 0.71,1.1 -1,-0.48 h -0.72 l 0.4,0.61 -1.44,-0.83 0.89,0.73 v 0.64 l -0.26,-0.58 -0.67,-0.62 0.15,5.53 h 0.33 v -1.26 a 1.82,1.82 0 0 1 0.77,-1.48 l 0.74,-0.52 0.75,0.52 a 1.81,1.81 0 0 1 0.76,1.48 v 1.23 h 0.39 v -2.53 h -0.1 v -0.21 h 0.52 a 0.57,0.57 0 0 1 -0.39,-0.54 0.57,0.57 0 0 1 1.13,0 0.37,0.37 0 0 1 0,0.11 l 0.25,0.43 h 1.94 v 0.21 h -0.1 v 2.53 h 0.42 v -2.53 h -0.1 v -0.21 h 3.44 v 0.21 h -0.1 v 2.53 h 0.4 v -2.53 h -0.1 v -0.21 h 3.44 v 0.21 h -0.1 v 2.53 h 0.22 v -1.29 a 1.42,1.42 0 0 1 0.6,-1.16 l 0.58,-0.41 0.58,0.41 a 1.42,1.42 0 0 1 0.6,1.16 v 1.29 h 0.16 v -2.38 a 0.79,0.79 0 0 1 -0.39,-0.62 l -0.09,-0.1 a 0.85,0.85 0 0 1 -0.23,0 0.92,0.92 0 0 1 0,-1.83 0.76,0.76 0 0 1 0.21,0 0.88,0.88 0 0 1 0.7,-0.34 1,1 0 0 1 0.24,0 l 0.7,-0.5 a 6,6 0 0 1 -0.6,-0.12 l -0.89,-0.05 -0.81,0.27 c 0.07,0 0.69,-0.5 0.69,-0.5 l 0.92,-0.05 -0.44,-0.36 -1.14,-0.34 1.34,0.18 1.37,0.46 -1.16,-0.7 -2.15,-0.69 2.36,-0.21 1.35,1.51 -1.11,-1.59 0.83,0.87 c -0.28,-0.66 -0.55,-1.35 -0.55,-1.35 l 1,1.52 -0.67,-2.3 0.66,1.14 -0.09,-0.72 0.36,-1.18 0.53,1.16 -0.14,0.74 0.91,-0.66 -1,2.1 1.51,-1.32 2.19,-0.16 -2.09,1 -1,0.77 c 0.69,-0.2 1.51,-0.46 1.51,-0.46 l -1,0.61 1.38,-0.21 -1.65,0.38 -0.24,0.15 1.55,-0.2 0.72,1.1 -1,-0.62 h -1 l 0.67,0.75 -1.44,-0.83 0.9,0.73 -0.19,0.6 -0.26,-0.73 -0.49,-0.46 0.09,1.46 a 0.71,0.71 0 0 1 0.47,-0.17 0.57,0.57 0 0 1 0.18,0 0.74,0.74 0 0 1 0.6,-0.29 0.76,0.76 0 0 1 0.67,0.4 0.78,0.78 0 0 1 0.22,0 0.77,0.77 0 0 1 0.77,0.77 0.78,0.78 0 0 1 -0.77,0.78 0.79,0.79 0 0 1 -0.35,-0.09 0.73,0.73 0 0 1 -0.28,0.17 v 0.81 a 59.9,59.9 0 0 0 12.22,-14.07 l 0.23,-0.37 v -0.06 c 0.07,-0.12 0.14,-0.24 0.22,-0.36 v -0.07 l 0.21,-0.36 v -0.06 l 0.45,-0.8 v 0 l 0.21,-0.4 v 0 l 0.21,-0.41 v 0 c 0.21,-0.42 0.42,-0.84 0.62,-1.27 v 0 c 0.06,-0.15 0.13,-0.29 0.19,-0.43 v 0 c 0.2,-0.44 0.38,-0.87 0.56,-1.31 v 0 l 0.18,-0.44 v 0 l 0.17,-0.45 c -8.69,-7.92 -20.73,-18.44 -20.73,-18.44 z"
     id="path85" />
  <path
     class="e"
     d="m 197.67501,91.502375 a 0.72,0.72 0 0 1 -0.41,-0.24 h -0.2 a 0.81,0.81 0 0 1 -0.44,-0.13 l 0.06,2.3 1,-0.8 z"
     id="path86" />
  <path
     class="e"
     d="m 194.37501,91.682375 v 2.3 h 0.46 v -2.08 a 0.83,0.83 0 0 1 -0.41,-0.25 z"
     id="path87" />
  <path
     class="e"
     d="m 181.35501,91.242375 h 0.22 l -0.05,-0.09 a 0.56,0.56 0 0 1 -0.17,0.09 z"
     id="path88" />
  <path
     class="e"
     d="m 181.67501,90.902375 a 0.52,0.52 0 0 1 -0.12,0.17 l 0.08,0.15 h 0.22 z"
     id="path89" />
  <metadata
     id="metadata89">
    <rdf:RDF>
      <cc:Work
         rdf:about="">
        <dc:title>Artboard 1</dc:title>
      </cc:Work>
    </rdf:RDF>
  </metadata>
</svg>
